<svg width="215" height="144" viewBox="0 0 215 144" fill="none" xmlns="http://www.w3.org/2000/svg">
<path d="M4.38999 85.565C4.38999 85.565 2.19985 86.4002 4.58779 91.0831C6.97572 95.7659 8.64985 98.0901 8.64985 98.0901C8.64985 98.0901 9.07412 99.1787 8.16252 99.3515C7.25092 99.5243 5.23852 99.2075 4.83432 100.331C4.41579 101.497 5.26145 102.592 6.97285 103.551C8.68425 104.51 12.3536 106.745 12.6833 106.949C13.0129 107.153 13.3369 107.655 12.732 107.871C12.1271 108.087 7.62072 108.576 7.97905 110.719C8.33739 112.862 13.5404 114.751 14.1051 114.958C14.6699 115.166 14.8046 115.416 14.7587 115.727C14.7129 116.038 13.1792 116.058 11.8921 116.251C10.6049 116.444 9.16012 116.891 9.46972 118.109C9.77932 119.327 12.8753 121.879 20.3545 122.587L23.8375 122.691L25.7237 119.728C29.3759 113.138 29.0319 109.138 28.2063 108.19C27.3807 107.243 26.1996 108.19 25.3109 109.141C24.4223 110.091 23.5422 111.353 23.2613 111.211C22.9803 111.07 22.8599 110.825 23.0033 110.235C23.1466 109.645 24.5484 104.273 23.0033 102.764C21.4581 101.255 18.4883 104.717 17.9694 105.094C17.4505 105.472 17.2183 104.913 17.2384 104.518C17.2585 104.124 17.505 99.8239 17.6885 97.8655C17.8719 95.9071 17.4505 94.5851 16.2551 94.2712C15.1085 93.9688 14.2255 95.812 13.5662 96.4715C12.9069 97.1311 12.2561 96.1605 12.2561 96.1605C12.2561 96.1605 11.2958 93.4706 8.81612 88.8309C6.33645 84.1912 4.36419 85.5707 4.36419 85.5707" fill="#F5F5F5"/>
<path d="M24.0154 123.51C22.2037 120.095 19.0876 113.969 16.3844 108.722C13.6811 103.474 11.2244 98.7337 9.43556 95.3065L7.30563 91.2544L6.73229 90.1513L6.59469 89.8547C6.56316 89.7885 6.54883 89.7539 6.54883 89.7539L6.60616 89.849L6.76096 90.137C6.90143 90.3904 7.10209 90.759 7.35723 91.2313C7.87323 92.1817 8.61283 93.5613 9.51583 95.2633C11.3276 98.679 13.79 103.42 16.4933 108.664C19.1966 113.908 22.304 120.04 24.0986 123.467" fill="#E0E0E0"/>
<path d="M7.64355 100.887C7.72713 100.899 7.80895 100.921 7.88722 100.953C8.04202 101.002 8.26275 101.08 8.53509 101.18C9.07975 101.379 9.82509 101.673 10.6392 102.01L12.7262 102.874L13.3597 103.136C13.4396 103.162 13.5165 103.197 13.589 103.24C13.5054 103.228 13.4236 103.205 13.3454 103.173C13.1906 103.124 12.9698 103.047 12.6975 102.946C12.1557 102.741 11.4161 102.439 10.5991 102.099L8.50642 101.235L7.87289 100.976C7.79372 100.954 7.71691 100.924 7.64355 100.887Z" fill="#E0E0E0"/>
<path d="M13.8273 103.026C13.7986 103.026 14.3347 101.448 15.0227 99.5212C15.7107 97.5945 16.2897 96.0422 16.3184 96.0508C16.3471 96.0595 15.811 97.6319 15.123 99.5587C14.435 101.485 13.8559 103.038 13.8273 103.026Z" fill="#E0E0E0"/>
<path d="M17.6172 111.268C17.6575 111.192 17.7045 111.12 17.7577 111.052L18.1676 110.476C18.5145 109.998 18.9903 109.324 19.4863 108.578C19.9822 107.832 20.4151 107.138 20.7218 106.62L21.0859 106.018C21.1261 105.942 21.1742 105.871 21.2292 105.805C21.2013 105.887 21.1647 105.966 21.1203 106.041C21.0457 106.188 20.9339 106.401 20.7877 106.657C20.5011 107.176 20.0797 107.881 19.578 108.639C19.0763 109.396 18.5919 110.053 18.2307 110.522C18.0472 110.758 17.8981 110.945 17.7921 111.072C17.7419 111.144 17.6832 111.21 17.6172 111.268Z" fill="#E0E0E0"/>
<path d="M11.5996 110.569C11.6787 110.56 11.7584 110.56 11.8375 110.569L12.4825 110.62C13.0272 110.667 13.7783 110.736 14.6067 110.822C15.4352 110.908 16.1834 110.992 16.7252 111.058L17.3673 111.142C17.447 111.148 17.5258 111.162 17.6024 111.185C17.5234 111.195 17.4435 111.195 17.3645 111.185L16.7195 111.136C16.1748 111.09 15.4237 111.018 14.5953 110.934C13.7668 110.851 13.0157 110.764 12.4739 110.698L11.8318 110.615C11.7528 110.609 11.6749 110.593 11.5996 110.569Z" fill="#E0E0E0"/>
<path d="M14.0244 118.273C14.1256 118.266 14.2271 118.266 14.3283 118.273L15.1567 118.331C15.8533 118.388 16.8165 118.472 17.8801 118.57C18.9436 118.668 19.9039 118.766 20.6005 118.841L21.4233 118.936C21.5198 118.945 21.6156 118.962 21.7099 118.985C21.6089 118.995 21.5071 118.995 21.4061 118.985L20.5805 118.924C19.881 118.869 18.9178 118.783 17.8543 118.685C16.7907 118.587 15.8304 118.489 15.1338 118.414L14.334 118.322C14.2293 118.318 14.1255 118.301 14.0244 118.273Z" fill="#E0E0E0"/>
<path d="M21.5469 118.923C21.5937 118.822 21.6504 118.725 21.716 118.635C21.845 118.445 22.0027 118.197 22.2119 117.895C22.6305 117.27 23.2038 116.406 23.8087 115.432C24.4135 114.459 24.9553 113.563 25.3194 112.912C25.5 112.601 25.6491 112.336 25.7666 112.143C25.8164 112.043 25.8739 111.947 25.9386 111.855C25.9035 111.956 25.8574 112.053 25.801 112.143C25.7064 112.331 25.5659 112.599 25.3853 112.93C25.0241 113.592 24.5081 114.494 23.9004 115.47C23.2927 116.446 22.7079 117.304 22.275 117.921C22.0571 118.226 21.8794 118.474 21.7504 118.641C21.6914 118.741 21.6232 118.835 21.5469 118.923Z" fill="#E0E0E0"/>
<path d="M83.0397 45.0197C83.2719 43.3321 80.9012 41.9439 79.121 41.7999C78.261 41.7308 77.401 41.8633 76.584 41.581C74.841 40.9705 74.1444 38.701 72.4445 37.9868C71.1717 37.4482 69.7097 37.9292 68.477 38.5628C67.2444 39.1964 66.026 39.9711 64.6472 40.0604C63.4489 40.1353 62.1503 39.6889 61.1011 40.2793C60.3185 40.717 59.9114 41.6213 59.1919 42.1541C58.4724 42.6869 57.5665 42.7848 56.695 42.8338C55.8236 42.8828 54.9148 42.8914 54.115 43.2572C53.3152 43.6229 52.6616 44.4668 52.825 45.3308L83.0397 45.0197Z" fill="#EBEBEB"/>
<path d="M134.124 24.4968C134.43 22.2533 131.28 20.4072 128.915 20.2171C127.785 20.125 126.622 20.2978 125.544 19.9291C123.225 19.117 122.299 16.1103 120.04 15.1512C118.348 14.437 116.402 15.0735 114.765 15.9029C113.128 16.7323 111.514 17.7691 109.674 17.8872C108.083 17.988 106.354 17.3947 104.961 18.1752C103.92 18.7512 103.379 19.9608 102.421 20.6693C101.464 21.3778 100.263 21.5103 99.1015 21.5736C97.9405 21.637 96.7365 21.6485 95.6787 22.1496C94.6209 22.6507 93.7466 23.7595 93.9587 24.9087L134.124 24.4968Z" fill="#F5F5F5"/>
<path d="M157.731 46.0416C157.954 44.4087 155.661 43.0666 153.941 42.9255C153.121 42.8592 152.267 42.9859 151.487 42.7123C149.799 42.1219 149.125 39.9331 147.474 39.2333C146.241 38.712 144.825 39.1786 143.632 39.7805C142.44 40.3824 141.259 41.1427 139.926 41.2205C138.779 41.2954 137.506 40.8634 136.486 41.4336C135.732 41.857 135.339 42.7325 134.637 43.248C133.934 43.7635 133.066 43.8615 132.22 43.9075C131.374 43.9536 130.5 43.9623 129.729 44.3165C128.958 44.6707 128.321 45.4887 128.482 46.3325L157.731 46.0416Z" fill="#F5F5F5"/>
<path d="M198.44 28.069C198.649 26.5311 196.491 25.2668 194.868 25.1343C194.094 25.0738 193.289 25.1919 192.555 24.9356C190.967 24.3797 190.333 22.3176 188.782 21.661C187.635 21.1685 186.288 21.6063 185.167 22.1736C184.046 22.741 182.931 23.4581 181.676 23.5388C180.586 23.6079 179.4 23.2018 178.445 23.7375C177.731 24.1349 177.359 24.9615 176.702 25.4453C176.046 25.9292 175.226 26.0213 174.429 26.0674C173.632 26.1135 172.806 26.1192 172.081 26.4504C171.356 26.7816 170.757 27.5564 170.909 28.3426L198.44 28.069Z" fill="#EBEBEB"/>
<path d="M173.896 122.311C174.166 122.435 174.409 122.613 174.61 122.834C174.811 123.054 174.966 123.313 175.065 123.595C175.261 124.161 175.323 124.764 175.249 125.358C175.143 126.51 174.515 127.676 173.833 128.606C172.855 127.783 172.608 126.302 172.528 125.562C172.402 124.376 172.895 122.152 173.896 122.311Z" fill="#6D30A7"/>
<path d="M174.985 130.48C174.913 130.154 174.928 129.814 175.029 129.495C175.13 129.177 175.312 128.891 175.559 128.666C175.809 128.446 176.1 128.278 176.416 128.173C176.732 128.068 177.065 128.027 177.396 128.052C177.55 128.047 177.703 128.076 177.845 128.137C177.987 128.197 178.113 128.289 178.216 128.404C178.293 128.526 178.335 128.666 178.34 128.811C178.344 128.955 178.311 129.098 178.242 129.225C178.101 129.477 177.896 129.687 177.649 129.835C176.826 130.377 175.929 130.748 174.983 130.48" fill="#6D30A7"/>
<path d="M173.815 134.018C173.82 133.939 173.831 133.86 173.847 133.782C173.873 133.615 173.91 133.402 173.95 133.143C174.046 132.431 174.255 131.74 174.569 131.095C174.897 130.449 175.392 129.904 176.003 129.517C176.188 129.404 176.385 129.312 176.59 129.243C176.646 129.224 176.702 129.208 176.759 129.197H176.82C176.545 129.299 176.281 129.427 176.031 129.58C175.447 129.978 174.972 130.517 174.65 131.147C174.34 131.784 174.128 132.463 174.019 133.163C173.964 133.431 173.921 133.647 173.887 133.797C173.87 133.873 173.846 133.947 173.815 134.018Z" fill="#263238"/>
<path d="M173.67 124.037C173.674 124.072 173.674 124.106 173.67 124.141C173.67 124.219 173.67 124.316 173.693 124.429C173.71 124.685 173.733 125.057 173.756 125.515C173.802 126.433 173.848 127.703 173.868 129.106C173.888 130.508 173.868 131.779 173.868 132.7C173.868 133.158 173.848 133.53 173.836 133.789C173.836 133.91 173.836 134.008 173.836 134.077C173.839 134.111 173.839 134.146 173.836 134.18C173.832 134.146 173.832 134.111 173.836 134.077C173.836 134.002 173.836 133.904 173.836 133.789C173.836 133.521 173.836 133.152 173.836 132.7C173.836 131.781 173.836 130.511 173.822 129.109C173.808 127.706 173.765 126.439 173.733 125.52C173.719 125.068 173.707 124.7 173.696 124.432C173.696 124.311 173.696 124.213 173.696 124.144C173.684 124.109 173.675 124.073 173.67 124.037Z" fill="#263238"/>
<path d="M173.334 131.209C173.204 130.515 172.912 129.863 172.48 129.306C172.049 128.748 171.491 128.303 170.854 128.006C170.53 127.857 170.109 127.764 169.851 128.006C169.593 128.248 169.659 128.68 169.793 129.011C170.086 129.701 170.576 130.289 171.201 130.699C171.826 131.109 172.559 131.324 173.305 131.315" fill="#6D30A7"/>
<path d="M171.041 129.088C171.113 129.11 171.182 129.139 171.248 129.174C171.327 129.21 171.404 129.249 171.48 129.292C171.566 129.347 171.672 129.396 171.766 129.474C171.885 129.55 171.999 129.633 172.108 129.721C172.235 129.82 172.357 129.927 172.472 130.041C172.735 130.302 172.968 130.591 173.165 130.905C173.358 131.223 173.515 131.561 173.633 131.913C173.682 132.067 173.722 132.224 173.753 132.383C173.787 132.532 173.802 132.671 173.819 132.8C173.833 132.916 173.841 133.032 173.842 133.149C173.846 133.236 173.846 133.323 173.842 133.411C173.842 133.485 173.834 133.56 173.819 133.633C173.802 133.633 173.819 133.313 173.762 132.809C173.746 132.67 173.722 132.533 173.69 132.397C173.656 132.242 173.613 132.089 173.561 131.939C173.329 131.243 172.936 130.612 172.414 130.099C172.303 129.985 172.185 129.877 172.062 129.776C171.95 129.678 171.835 129.601 171.732 129.526C171.325 129.232 171.033 129.105 171.041 129.088Z" fill="#263238"/>
<path d="M14.1391 112.58C13.712 113.294 12.7746 113.133 12.3188 112.75C11.863 112.367 11.6394 111.774 11.433 111.209C10.9657 109.925 10.4899 108.574 10.6762 107.218C10.7165 106.808 10.8671 106.416 11.1119 106.086C11.2366 105.923 11.402 105.796 11.5912 105.717C11.7805 105.639 11.9869 105.612 12.1898 105.639C12.6628 105.729 12.9839 106.166 13.2247 106.587C13.9288 107.83 14.3489 109.215 14.4545 110.642C14.5459 111.305 14.436 111.981 14.1391 112.58Z" fill="#6D30A7"/>
<g opacity="0.2">
<path d="M14.1391 112.58C13.712 113.294 12.7746 113.133 12.3188 112.75C11.863 112.367 11.6394 111.774 11.433 111.209C10.9657 109.925 10.4899 108.574 10.6762 107.218C10.7165 106.808 10.8671 106.416 11.1119 106.086C11.2366 105.923 11.402 105.796 11.5912 105.717C11.7805 105.639 11.9869 105.612 12.1898 105.639C12.6628 105.729 12.9839 106.166 13.2247 106.587C13.9288 107.83 14.3489 109.215 14.4545 110.642C14.5459 111.305 14.436 111.981 14.1391 112.58Z" fill="black"/>
</g>
<path d="M12.6144 116.154C11.7903 115.836 10.8862 115.79 10.0344 116.025C9.56601 116.099 9.13599 116.33 8.81324 116.679C8.52657 117.05 8.5065 117.669 8.88777 117.943C9.13185 118.085 9.4179 118.137 9.69617 118.09C10.3727 118.035 11.1123 117.862 11.6799 118.234C12.0038 118.444 12.236 118.81 12.6116 118.905C12.7987 118.936 12.9909 118.905 13.1584 118.815C13.3259 118.726 13.4592 118.583 13.5375 118.41C13.6883 118.057 13.6996 117.661 13.569 117.301C13.5082 117.049 13.3905 116.814 13.2249 116.616C13.0594 116.417 12.8505 116.259 12.6144 116.154Z" fill="#6D30A7"/>
<path d="M15.513 113.473C15.2465 113.17 15.0579 112.807 14.9634 112.414C14.869 112.021 14.8717 111.61 14.9712 111.218C15.1756 110.431 15.5934 109.716 16.1781 109.153C16.8364 108.475 17.6203 107.932 18.4857 107.555C18.8194 107.392 19.184 107.303 19.555 107.293C19.7408 107.291 19.9243 107.335 20.0896 107.42C20.2549 107.506 20.397 107.63 20.5039 107.783C20.7905 108.249 20.5899 108.857 20.3605 109.355C19.9562 110.235 19.4837 111.081 18.9473 111.887C18.5144 112.535 18.0156 113.177 17.3133 113.505C16.6109 113.833 15.857 113.854 15.4385 113.378" fill="#6D30A7"/>
<path d="M14.891 122.852C14.858 122.753 14.8359 122.651 14.825 122.547C14.7878 122.323 14.7419 122.043 14.6846 121.706C14.6112 121.293 14.5155 120.885 14.3979 120.482C14.2534 119.988 14.0693 119.507 13.8475 119.042C13.6328 118.589 13.3558 118.168 13.0248 117.792C12.7492 117.483 12.4097 117.237 12.03 117.072C11.772 116.967 11.4993 116.903 11.2216 116.882C11.117 116.884 11.0124 116.876 10.9092 116.859C11.0119 116.838 11.1167 116.828 11.2216 116.83C11.5087 116.833 11.793 116.887 12.0616 116.989C12.4621 117.144 12.8206 117.391 13.1079 117.712C13.4574 118.098 13.7472 118.535 13.9679 119.008C14.1917 119.476 14.3758 119.963 14.5183 120.462C14.6256 120.871 14.7089 121.285 14.7677 121.703C14.8193 122.06 14.8508 122.351 14.868 122.553C14.8863 122.652 14.894 122.752 14.891 122.852Z" fill="#263238"/>
<path d="M14.7877 122.208C14.7744 122.161 14.7677 122.113 14.7677 122.064C14.7677 121.958 14.7677 121.822 14.7419 121.655C14.7161 121.298 14.6817 120.791 14.6186 120.146C14.4982 118.876 14.266 117.125 13.9191 115.207C13.5723 113.289 13.1681 111.567 12.8269 110.34C12.7438 110.029 12.6635 109.764 12.589 109.51C12.5145 109.257 12.4543 109.058 12.3969 108.888C12.3396 108.718 12.3052 108.6 12.2737 108.497C12.2563 108.451 12.2447 108.404 12.2393 108.355C12.2623 108.398 12.2814 108.442 12.2966 108.488C12.3367 108.589 12.3855 108.715 12.4428 108.871C12.5001 109.027 12.5775 109.248 12.6549 109.49C12.7323 109.732 12.8241 110.006 12.9129 110.314C13.3822 111.915 13.7649 113.541 14.0596 115.184C14.4065 117.105 14.6329 118.862 14.7218 120.138C14.7734 120.777 14.7963 121.29 14.8049 121.652C14.8049 121.819 14.8049 121.955 14.8049 122.064C14.8036 122.113 14.7979 122.161 14.7877 122.208Z" fill="#263238"/>
<path d="M14.5409 118.806C14.5216 118.664 14.5129 118.52 14.5151 118.377C14.5116 117.989 14.5278 117.602 14.5639 117.216C14.6867 115.93 14.9629 114.663 15.3866 113.443C15.7919 112.213 16.4164 111.066 17.2299 110.059C17.3719 109.887 17.5241 109.724 17.6857 109.57C17.7573 109.501 17.8175 109.434 17.8806 109.38L18.0612 109.233C18.1703 109.14 18.2852 109.055 18.4052 108.977C18.0149 109.338 17.6464 109.723 17.3015 110.129C16.5187 111.133 15.9119 112.263 15.507 113.472C15.2706 114.136 15.079 114.816 14.9337 115.506C14.7932 116.142 14.7101 116.724 14.647 117.21C14.5839 117.697 14.5696 118.1 14.5581 118.362C14.5646 118.511 14.5589 118.659 14.5409 118.806Z" fill="#263238"/>
<path d="M178.949 56.7367L176.656 52.6529C178.083 50.3269 178.592 47.5489 178.084 44.8649C177.575 42.1808 176.086 39.7849 173.909 38.1481C171.731 36.5113 169.023 35.752 166.316 36.0194C163.61 36.2868 161.101 37.5616 159.282 39.5932C157.464 41.6249 156.468 44.2663 156.49 46.9985C156.511 49.7306 157.55 52.3557 159.4 54.3578C161.251 56.3599 163.78 57.5942 166.49 57.818C169.201 58.0419 171.896 57.2391 174.047 55.5674L178.949 56.7367Z" fill="white"/>
<path d="M178.949 56.7364L174.022 55.6075H173.967L174.002 55.5614L174.053 55.6132C172.54 56.8012 170.739 57.5645 168.836 57.825C168.266 57.9059 167.691 57.9358 167.116 57.9143C166.829 57.897 166.517 57.8913 166.213 57.8654L165.293 57.7242C163.168 57.306 161.214 56.2659 159.677 54.7346C158.139 53.2034 157.087 51.2495 156.653 49.1188C156.341 47.5074 156.385 45.8469 156.782 44.2545C157.191 42.5859 157.991 41.0397 159.115 39.7444L159.559 39.2519C159.706 39.0878 159.88 38.9639 160.038 38.7998C160.196 38.6356 160.353 38.4945 160.531 38.3678L161.053 37.9761C161.225 37.8433 161.406 37.7229 161.595 37.6161L162.145 37.2791L162.718 36.9911C162.904 36.8932 163.096 36.8067 163.292 36.7319C164.839 36.1165 166.505 35.8586 168.165 35.9774C169.737 36.0863 171.265 36.5405 172.643 37.3079C175.114 38.6934 176.961 40.979 177.803 43.6929C178.151 44.8505 178.321 46.0548 178.307 47.2641C178.25 49.1831 177.689 51.0528 176.682 52.6842V52.6468L178.949 56.7364L176.61 52.6699V52.6526V52.6353C177.598 51.0091 178.143 49.1511 178.193 47.2468C178.211 46.0569 178.049 44.8711 177.711 43.7303C176.868 41.0546 175.039 38.8041 172.597 37.4404C171.235 36.6849 169.726 36.2385 168.174 36.1329C166.535 36.0173 164.891 36.2722 163.363 36.8788C163.168 36.954 162.976 37.0406 162.79 37.138L162.217 37.426L161.672 37.7601C161.486 37.865 161.308 37.9834 161.139 38.1143L160.623 38.5002C160.448 38.627 160.302 38.7883 160.138 38.9265C159.975 39.0647 159.809 39.2145 159.665 39.3758L159.227 39.8596C158.123 41.1345 157.337 42.6547 156.933 44.2948C156.539 45.8651 156.495 47.5035 156.804 49.0929C157.104 50.5969 157.721 52.0189 158.613 53.2631C160.22 55.509 162.616 57.059 165.316 57.6004L166.224 57.7415C166.511 57.7675 166.823 57.7761 167.119 57.7934C167.689 57.8177 168.259 57.7907 168.824 57.7127C170.711 57.4613 172.499 56.7153 174.007 55.5499L174.237 55.3713L174.062 55.6017L174.042 55.5412L178.949 56.7364Z" fill="#263238"/>
<path d="M168.59 52.8626C171.849 52.368 174.092 49.3125 173.6 46.0381C173.107 42.7636 170.066 40.5102 166.807 41.0048C163.547 41.4994 161.304 44.5549 161.797 47.8293C162.289 51.1037 165.33 53.3572 168.59 52.8626Z" fill="#6D30A7"/>
<path d="M170.806 46.1895H164.591V47.4912H170.806V46.1895Z" fill="#EAEAEA"/>
<path d="M169.263 81.0959C169.263 81.0959 168.856 82.8239 166.775 82.9593C164.694 83.0946 161.234 83.1119 161.234 83.1119L158.367 81.7785L157.292 77.8242L160.5 79.2901L169.263 81.0959Z" fill="#263238"/>
<path d="M169.264 81.0957C169.264 81.0957 170.812 78.5382 167.885 76.911C164.958 75.2838 160.248 76.5424 160.248 76.5424L160.667 81.3203L169.264 81.0957Z" fill="#6D30A7"/>
<path d="M160.941 104.453H159.708C156.58 104.453 154.044 107.001 154.044 110.144V128.464C154.044 131.607 156.58 134.155 159.708 134.155H160.941C164.07 134.155 166.606 131.607 166.606 128.464V110.144C166.606 107.001 164.07 104.453 160.941 104.453Z" fill="#263238"/>
<path d="M83.7966 104.453H82.564C79.4355 104.453 76.8994 107.001 76.8994 110.144V128.464C76.8994 131.607 79.4355 134.155 82.564 134.155H83.7966C86.925 134.155 89.4612 131.607 89.4612 128.464V110.144C89.4612 107.001 86.925 104.453 83.7966 104.453Z" fill="#263238"/>
<path d="M80.5798 123.063C80.5798 123.063 76.2798 114.777 76.1393 104.962C75.9989 95.1471 77.286 91.1957 79.565 89.2834C81.844 87.3711 84.3867 83.1634 84.3867 83.1634C84.3867 83.1634 86.9925 72.7695 90.6045 66.0821C93.9012 59.9794 99.9929 60.6101 99.9929 60.6101C99.9929 60.6101 126.765 58.1996 143.515 60.5525C143.515 60.5525 148.081 60.2271 151.381 65.3276C154.68 70.428 158.358 79.3474 159.247 83.9381C159.247 83.9381 163.18 87.7628 164.324 89.5455C165.468 91.3282 167.494 94.5164 167.242 97.5778C166.99 100.639 167.113 117.844 162.942 123.581L80.5798 123.063Z" fill="#6D30A7"/>
<path d="M88.1338 78.4543C88.1338 78.4543 90.6077 66.5023 93.9589 64.5295C97.31 62.5567 121.396 62.6431 121.396 62.6431L144.742 63.3084C144.742 63.3084 148.844 63.4265 150.174 65.6326C151.504 67.8387 155.374 78.2873 154.91 79.0419L118.968 79.4479C118.968 79.4479 93.6607 79.9116 92.623 79.6783C91.5853 79.4451 88.3545 79.7446 88.1338 78.4543Z" fill="#263238"/>
<path d="M92.2764 78.4541C92.2764 78.4541 90.0863 78.1315 90.3701 75.7181C90.5908 73.8461 92.8182 68.6131 93.8101 66.3696C93.951 66.0486 94.172 65.7697 94.4518 65.5598C94.7315 65.3499 95.0605 65.2161 95.4068 65.1715C98.434 64.7799 106.094 63.4925 119.725 63.6135C137.097 63.7661 147.712 64.0858 148.678 65.3415C149.446 66.3408 152.425 74.3299 152.772 75.5021C153.173 76.8586 151.338 78.3677 148.735 78.4397C146.133 78.5117 92.2764 78.4541 92.2764 78.4541Z" fill="#455A64"/>
<g opacity="0.4">
<path d="M144.98 104.98C142.993 101.27 137.564 101.812 137.564 101.812C137.564 101.812 109.579 101.717 106.629 101.812C103.68 101.907 102.917 101.921 101.108 103.828C99.2994 105.734 93.7725 117.096 93.7725 117.096H150.69C150.69 117.096 147.23 109.185 144.98 104.98Z" fill="black"/>
</g>
<path d="M100.334 90.6055L101.787 93.9722C101.787 93.9722 102.404 95.2797 104.941 95.4871C106.924 95.6455 139.232 95.6368 139.232 95.6368C139.232 95.6368 141.382 95.8269 142.225 94.3235C142.86 93.1195 143.422 91.8778 143.907 90.6055H100.334Z" fill="#263238"/>
<path d="M80.503 94.9246C80.5014 93.4342 80.5818 91.9449 80.7438 90.4634C80.8355 89.8356 82.0309 87.5834 85.5454 87.2033C86.4599 87.1025 87.2425 87.0564 87.8989 87.0391C89.0354 87.003 90.1662 87.2138 91.2141 87.6572C92.262 88.1006 93.2022 88.766 93.9705 89.6081C94.4886 90.1789 94.909 90.8318 95.2147 91.5406C96.4703 94.5185 97.0981 98.1646 97.0981 98.1646L80.503 94.9246Z" fill="#EAEAEA"/>
<g opacity="0.3">
<path d="M80.7663 94.9258H80.5026C80.5026 94.9258 79.6025 97.6531 81.7095 98.8224C83.0998 99.5943 87.7725 100.355 90.7882 100.781C91.6206 100.899 92.4681 100.843 93.2784 100.619C94.0886 100.394 94.8441 100.004 95.4981 99.4733L97.0977 98.1773L80.7663 94.9258Z" fill="black"/>
</g>
<path d="M95.0684 63.8651C95.0684 63.8651 95.8624 60.3947 96.9804 59.234C98.0984 58.0734 99.4142 58.1051 100.154 58.5054C100.813 58.8625 101.768 60.4551 101.768 60.4551L99.9302 60.5905C99.8198 60.4073 99.6539 60.2644 99.457 60.1826C99.26 60.1007 99.0421 60.0842 98.8352 60.1355C98.1701 60.3255 97.7114 61.5553 97.7114 61.5553L96.9174 63.5713L95.0684 63.8651Z" fill="#E0E0E0"/>
<path d="M146.453 63.6053C146.453 63.6053 145.659 60.1493 144.541 58.9743C143.423 57.7992 142.107 57.8453 141.368 58.2456C140.709 58.6027 139.754 60.1954 139.754 60.1954L141.591 60.3336C141.701 60.1499 141.867 60.0064 142.064 59.924C142.261 59.8416 142.479 59.8247 142.687 59.8757C143.352 60.0658 143.81 61.2955 143.81 61.2955L144.604 63.3115L146.453 63.6053Z" fill="#E0E0E0"/>
<path d="M142.09 89.071C142.09 89.1142 132.688 89.1459 121.089 89.1459C109.491 89.1459 100.088 89.1142 100.088 89.071C100.088 89.0278 109.488 88.9961 121.089 88.9961C132.69 88.9961 142.09 89.0306 142.09 89.071Z" fill="#263238"/>
<g opacity="0.3">
<path d="M80.3111 106.135C80.3111 106.135 80.1276 112.842 83.8428 113.176L86.3655 113.415C86.9384 113.47 87.5152 113.364 88.0322 113.11C88.5491 112.856 88.9862 112.463 89.2952 111.975L91.5885 108.358L80.3111 106.135Z" fill="black"/>
</g>
<g opacity="0.3">
<path d="M78.2148 117.102L165.453 117.047C164.957 119.469 164.163 121.681 162.928 123.573L80.5798 123.063C79.6454 121.138 78.8549 119.145 78.2148 117.102Z" fill="black"/>
</g>
<path d="M73.8145 81.0959C73.8145 81.0959 74.2187 82.8239 76.3027 82.9593C78.3868 83.0946 81.844 83.1119 81.844 83.1119L84.7279 81.8735L85.9204 77.8242L82.5807 79.2901L73.8145 81.0959Z" fill="#263238"/>
<path d="M73.8147 81.0957C73.8147 81.0957 72.2667 78.5382 75.1907 76.911C78.1147 75.2838 82.8189 76.5424 82.8189 76.5424L82.4032 81.3203L73.8147 81.0957Z" fill="#6D30A7"/>
<path d="M133.405 105.746H110.529C108.988 105.746 107.739 107.001 107.739 108.548V109.159C107.739 110.707 108.988 111.961 110.529 111.961H133.405C134.945 111.961 136.194 110.707 136.194 109.159V108.548C136.194 107.001 134.945 105.746 133.405 105.746Z" fill="#EAEAEA"/>
<path d="M88.4802 78.5234C88.4974 78.5522 87.97 78.8287 87.2418 79.4393C87.042 79.6051 86.8506 79.781 86.6685 79.9663C86.4621 80.1593 86.2729 80.3897 86.0665 80.623C85.6395 81.1525 85.2632 81.7214 84.9428 82.3222C84.6322 82.9294 84.3825 83.5661 84.1974 84.223C84.1189 84.5075 84.0548 84.7959 84.0054 85.087C83.9557 85.3411 83.9203 85.5978 83.8993 85.8559C83.8162 86.8063 83.8993 87.3996 83.8592 87.3996C83.8251 87.2648 83.8059 87.1267 83.8018 86.9878C83.7843 86.8252 83.7766 86.6617 83.7789 86.4982C83.7713 86.2821 83.7761 86.0657 83.7932 85.8502C83.8079 85.5875 83.8376 85.326 83.8821 85.0668C83.9282 84.7682 83.9894 84.4721 84.0656 84.1798C84.2459 83.5116 84.4947 82.8639 84.808 82.2473C85.1307 81.6336 85.5149 81.0546 85.9547 80.5193C86.1495 80.2888 86.3562 80.0686 86.5739 79.8598C86.7603 79.6753 86.9574 79.5021 87.1644 79.3414C87.3313 79.2033 87.5054 79.0745 87.6862 78.9554C87.8181 78.8603 87.956 78.7737 88.099 78.6962C88.2206 78.6271 88.3482 78.5692 88.4802 78.5234Z" fill="#263238"/>
<path d="M145.651 98.1765C145.651 98.2197 134.826 98.2744 121.479 98.3003C108.132 98.3262 97.3018 98.3147 97.3018 98.2715C97.3018 98.2283 108.123 98.1765 121.479 98.1506C134.835 98.1246 145.651 98.1362 145.651 98.1765Z" fill="#263238"/>
<path d="M125.825 65.7934C125.845 65.8279 121.946 68.1809 117.119 71.0436C112.291 73.9063 108.361 76.2017 108.338 76.1642C108.315 76.1268 112.214 73.7796 117.044 70.914C121.874 68.0484 125.802 65.7588 125.825 65.7934Z" fill="#E0E0E0"/>
<path d="M117.715 66.6235C117.738 66.6581 114.848 68.5531 111.268 70.8571C107.687 73.1611 104.76 74.9986 104.74 74.964C104.72 74.9295 107.607 73.0344 111.187 70.7304C114.768 68.4264 117.695 66.589 117.715 66.6235Z" fill="#E0E0E0"/>
<path d="M130.102 66.1919C130.125 66.2265 127.548 67.9919 124.348 70.1318C121.149 72.2716 118.535 73.9823 118.512 73.9478C118.489 73.9132 121.063 72.1506 124.265 70.0079C127.467 67.8652 130.079 66.1574 130.102 66.1919Z" fill="#E0E0E0"/>
<path d="M165.453 117.047C165.453 117.087 145.923 117.133 121.837 117.147C97.7512 117.162 78.2148 117.147 78.2148 117.101C78.2148 117.055 97.7397 117.015 121.837 116.998C145.934 116.98 165.453 117.006 165.453 117.047Z" fill="#263238"/>
<path d="M158.917 89.0769C158.946 88.9189 158.985 88.763 159.035 88.6103C159.155 88.1899 159.25 87.763 159.322 87.3316C159.424 86.6939 159.455 86.0466 159.413 85.402C159.378 84.6137 159.197 83.8391 158.877 83.1182C158.534 82.4066 158.104 81.7402 157.599 81.1338C157.195 80.6328 156.737 80.1779 156.234 79.7774C155.895 79.4952 155.506 79.2801 155.088 79.1438C154.977 79.106 154.863 79.0808 154.746 79.0689C154.705 79.0657 154.665 79.057 154.626 79.043C154.626 79.043 154.666 79.043 154.749 79.043C154.87 79.0435 154.989 79.061 155.105 79.0948C155.53 79.2144 155.928 79.4181 156.274 79.6938C156.795 80.0899 157.268 80.5451 157.685 81.0503C158.204 81.6635 158.644 82.3411 158.992 83.0663C159.176 83.4384 159.309 83.8336 159.388 84.2414C159.464 84.6212 159.513 85.0063 159.534 85.3934C159.571 86.0477 159.531 86.7042 159.413 87.3489C159.335 87.7821 159.227 88.2094 159.089 88.6276C159.041 88.7745 158.998 88.8868 158.969 88.9646C158.94 89.0423 158.923 89.0798 158.917 89.0769Z" fill="#263238"/>
<path d="M162.254 94.9248C162.256 93.4344 162.174 91.945 162.01 90.4637C161.922 89.8359 160.726 87.5837 157.209 87.2036C156.297 87.1028 155.515 87.0567 154.858 87.0394C153.721 87.002 152.589 87.2123 151.54 87.6557C150.491 88.0991 149.55 88.7652 148.781 89.6084C148.262 90.179 147.841 90.832 147.534 91.5408C146.278 94.5187 145.65 98.1648 145.65 98.1648L162.254 94.9248Z" fill="#EAEAEA"/>
<g opacity="0.3">
<path d="M161.982 94.9258H162.254C162.254 94.9258 163.152 97.6531 161.045 98.8224C159.654 99.5943 154.982 100.355 151.966 100.781C151.133 100.899 150.286 100.843 149.476 100.618C148.666 100.393 147.91 100.004 147.256 99.4733L145.656 98.1773L161.982 94.9258Z" fill="black"/>
</g>
<g opacity="0.3">
<path d="M162.438 106.135C162.438 106.135 162.624 112.842 158.909 113.176L156.383 113.415C155.81 113.469 155.234 113.363 154.717 113.109C154.2 112.855 153.763 112.463 153.453 111.975L151.16 108.358L162.438 106.135Z" fill="black"/>
</g>
<path d="M42.2101 32.8086H39.418V38.8883H42.2101V32.8086Z" fill="#263238"/>
<path d="M61.3421 20.7324H20.4004V33.1135H61.3421V20.7324Z" fill="#F5F5F5"/>
<path d="M37.4311 24.4845L35.3871 29.5H34.7781L32.7341 24.4845H33.2766C33.3373 24.4845 33.3863 24.4997 33.4236 24.53C33.461 24.5603 33.489 24.5988 33.5076 24.6455L34.9216 28.184C34.952 28.2633 34.9811 28.3497 35.0091 28.443C35.0395 28.5363 35.0663 28.6343 35.0896 28.737C35.113 28.6343 35.1375 28.5363 35.1631 28.443C35.1888 28.3497 35.2168 28.2633 35.2471 28.184L36.6576 24.6455C36.6716 24.6058 36.6985 24.5697 36.7381 24.537C36.7801 24.502 36.8303 24.4845 36.8886 24.4845H37.4311ZM39.3527 27.904C39.0657 27.9133 38.8207 27.9367 38.6177 27.974C38.4171 28.009 38.2526 28.0557 38.1242 28.114C37.9982 28.1723 37.9061 28.2412 37.8477 28.3205C37.7917 28.3998 37.7637 28.4885 37.7637 28.5865C37.7637 28.6798 37.7789 28.7603 37.8092 28.828C37.8396 28.8957 37.8804 28.9517 37.9317 28.996C37.9854 29.038 38.0472 29.0695 38.1172 29.0905C38.1896 29.1092 38.2666 29.1185 38.3482 29.1185C38.4579 29.1185 38.5582 29.108 38.6492 29.087C38.7402 29.0637 38.8254 29.031 38.9047 28.989C38.9864 28.947 39.0634 28.8968 39.1357 28.8385C39.2104 28.7802 39.2827 28.7137 39.3527 28.639V27.904ZM37.3402 26.455C37.5362 26.266 37.7474 26.1248 37.9737 26.0315C38.2001 25.9382 38.4509 25.8915 38.7262 25.8915C38.9246 25.8915 39.1007 25.9242 39.2547 25.9895C39.4087 26.0548 39.5382 26.1458 39.6432 26.2625C39.7482 26.3792 39.8276 26.5203 39.8812 26.686C39.9349 26.8517 39.9617 27.0337 39.9617 27.232V29.5H39.6852C39.6246 29.5 39.5779 29.4907 39.5452 29.472C39.5126 29.451 39.4869 29.4113 39.4682 29.353L39.3982 29.017C39.3049 29.1033 39.2139 29.1803 39.1252 29.248C39.0366 29.3133 38.9432 29.3693 38.8452 29.416C38.7472 29.4603 38.6422 29.4942 38.5302 29.5175C38.4206 29.5432 38.2981 29.556 38.1627 29.556C38.0251 29.556 37.8956 29.5373 37.7742 29.5C37.6529 29.4603 37.5467 29.402 37.4557 29.325C37.3671 29.248 37.2959 29.1512 37.2422 29.0345C37.1909 28.9155 37.1652 28.7755 37.1652 28.6145C37.1652 28.4745 37.2037 28.3403 37.2807 28.212C37.3577 28.0813 37.4826 27.9658 37.6552 27.8655C37.8279 27.7652 38.0531 27.6835 38.3307 27.6205C38.6084 27.5552 38.9491 27.5178 39.3527 27.5085V27.232C39.3527 26.9567 39.2932 26.749 39.1742 26.609C39.0552 26.4667 38.8814 26.3955 38.6527 26.3955C38.4987 26.3955 38.3692 26.4153 38.2642 26.455C38.1616 26.4923 38.0717 26.5355 37.9947 26.5845C37.9201 26.6312 37.8547 26.6743 37.7987 26.714C37.7451 26.7513 37.6914 26.77 37.6377 26.77C37.5957 26.77 37.5596 26.7595 37.5292 26.7385C37.4989 26.7152 37.4732 26.6872 37.4522 26.6545L37.3402 26.455ZM41.5547 24.3445V29.5H40.9317V24.3445H41.5547ZM44.938 27.3405C44.938 27.1958 44.917 27.064 44.875 26.945C44.8354 26.8237 44.7759 26.7198 44.6965 26.6335C44.6195 26.5448 44.525 26.4772 44.413 26.4305C44.301 26.3815 44.1739 26.357 44.0315 26.357C43.7329 26.357 43.496 26.4445 43.321 26.6195C43.1484 26.7922 43.041 27.0325 42.999 27.3405H44.938ZM45.442 29.003C45.365 29.0963 45.2729 29.178 45.1655 29.248C45.0582 29.3157 44.9427 29.3717 44.819 29.416C44.6977 29.4603 44.5717 29.493 44.441 29.514C44.3104 29.5373 44.1809 29.549 44.0525 29.549C43.8075 29.549 43.5812 29.5082 43.3735 29.4265C43.1682 29.3425 42.9897 29.2212 42.838 29.0625C42.6887 28.9015 42.572 28.7032 42.488 28.4675C42.404 28.2318 42.362 27.9612 42.362 27.6555C42.362 27.4082 42.3994 27.1772 42.474 26.9625C42.551 26.7478 42.6607 26.5623 42.803 26.406C42.9454 26.2473 43.1192 26.1237 43.3245 26.035C43.5299 25.944 43.7609 25.8985 44.0175 25.8985C44.2299 25.8985 44.4259 25.9347 44.6055 26.007C44.7875 26.077 44.9439 26.1797 45.0745 26.315C45.2075 26.448 45.3114 26.6137 45.386 26.812C45.4607 27.008 45.498 27.232 45.498 27.484C45.498 27.582 45.4875 27.6473 45.4665 27.68C45.4455 27.7127 45.4059 27.729 45.3475 27.729H42.978C42.985 27.953 43.0154 28.1478 43.069 28.3135C43.125 28.4792 43.202 28.618 43.3 28.73C43.398 28.8397 43.5147 28.9225 43.65 28.9785C43.7854 29.0322 43.937 29.059 44.105 29.059C44.2614 29.059 44.3955 29.0415 44.5075 29.0065C44.6219 28.9692 44.7199 28.9295 44.8015 28.8875C44.8832 28.8455 44.9509 28.807 45.0045 28.772C45.0605 28.7347 45.1084 28.716 45.148 28.716C45.1994 28.716 45.239 28.7358 45.267 28.7755L45.442 29.003ZM47.3244 29.556C47.0444 29.556 46.8286 29.4778 46.6769 29.3215C46.5276 29.1652 46.4529 28.94 46.4529 28.646V26.476H46.0259C45.9886 26.476 45.9571 26.4655 45.9314 26.4445C45.9058 26.4212 45.8929 26.3862 45.8929 26.3395V26.091L46.4739 26.0175L46.6174 24.922C46.6244 24.887 46.6396 24.859 46.6629 24.838C46.6886 24.8147 46.7213 24.803 46.7609 24.803H47.0759V26.0245H48.1014V26.476H47.0759V28.604C47.0759 28.7533 47.1121 28.8642 47.1844 28.9365C47.2568 29.0088 47.3501 29.045 47.4644 29.045C47.5298 29.045 47.5858 29.0368 47.6324 29.0205C47.6814 29.0018 47.7234 28.982 47.7584 28.961C47.7934 28.94 47.8226 28.9213 47.8459 28.905C47.8716 28.8863 47.8938 28.877 47.9124 28.877C47.9451 28.877 47.9743 28.8968 47.9999 28.9365L48.1819 29.234C48.0746 29.3343 47.9451 29.4137 47.7934 29.472C47.6418 29.528 47.4854 29.556 47.3244 29.556ZM35.7638 35.085C35.9575 35.085 36.1278 35.0593 36.2748 35.008C36.4242 34.9567 36.549 34.8855 36.6493 34.7945C36.752 34.7012 36.829 34.5903 36.8803 34.462C36.9317 34.3337 36.9573 34.1925 36.9573 34.0385C36.9573 33.7188 36.8582 33.4692 36.6598 33.2895C36.4638 33.1098 36.1652 33.02 35.7638 33.02H34.9588V35.085H35.7638ZM35.7638 32.4845C36.0812 32.4845 36.3565 32.5218 36.5898 32.5965C36.8255 32.6688 37.0203 32.7727 37.1743 32.908C37.3283 33.0433 37.4427 33.2067 37.5173 33.398C37.5943 33.5893 37.6328 33.8028 37.6328 34.0385C37.6328 34.2718 37.592 34.4853 37.5103 34.679C37.4287 34.8727 37.3085 35.0395 37.1498 35.1795C36.9935 35.3195 36.7987 35.4292 36.5653 35.5085C36.3343 35.5855 36.0672 35.624 35.7638 35.624H34.9588V37.5H34.2833V32.4845H35.7638ZM40.1525 35.904C39.8655 35.9133 39.6205 35.9367 39.4175 35.974C39.2169 36.009 39.0524 36.0557 38.924 36.114C38.798 36.1723 38.7059 36.2412 38.6475 36.3205C38.5915 36.3998 38.5635 36.4885 38.5635 36.5865C38.5635 36.6798 38.5787 36.7603 38.609 36.828C38.6394 36.8957 38.6802 36.9517 38.7315 36.996C38.7852 37.038 38.847 37.0695 38.917 37.0905C38.9894 37.1092 39.0664 37.1185 39.148 37.1185C39.2577 37.1185 39.358 37.108 39.449 37.087C39.54 37.0637 39.6252 37.031 39.7045 36.989C39.7862 36.947 39.8632 36.8968 39.9355 36.8385C40.0102 36.7802 40.0825 36.7137 40.1525 36.639V35.904ZM38.14 34.455C38.336 34.266 38.5472 34.1248 38.7735 34.0315C38.9999 33.9382 39.2507 33.8915 39.526 33.8915C39.7244 33.8915 39.9005 33.9242 40.0545 33.9895C40.2085 34.0548 40.338 34.1458 40.443 34.2625C40.548 34.3792 40.6274 34.5203 40.681 34.686C40.7347 34.8517 40.7615 35.0337 40.7615 35.232V37.5H40.485C40.4244 37.5 40.3777 37.4907 40.345 37.472C40.3124 37.451 40.2867 37.4113 40.268 37.353L40.198 37.017C40.1047 37.1033 40.0137 37.1803 39.925 37.248C39.8364 37.3133 39.743 37.3693 39.645 37.416C39.547 37.4603 39.442 37.4942 39.33 37.5175C39.2204 37.5432 39.0979 37.556 38.9625 37.556C38.8249 37.556 38.6954 37.5373 38.574 37.5C38.4527 37.4603 38.3465 37.402 38.2555 37.325C38.1669 37.248 38.0957 37.1512 38.042 37.0345C37.9907 36.9155 37.965 36.7755 37.965 36.6145C37.965 36.4745 38.0035 36.3403 38.0805 36.212C38.1575 36.0813 38.2824 35.9658 38.455 35.8655C38.6277 35.7652 38.8529 35.6835 39.1305 35.6205C39.4082 35.5552 39.7489 35.5178 40.1525 35.5085V35.232C40.1525 34.9567 40.093 34.749 39.974 34.609C39.855 34.4667 39.6812 34.3955 39.4525 34.3955C39.2985 34.3955 39.169 34.4153 39.064 34.455C38.9614 34.4923 38.8715 34.5355 38.7945 34.5845C38.7199 34.6312 38.6545 34.6743 38.5985 34.714C38.5449 34.7513 38.4912 34.77 38.4375 34.77C38.3955 34.77 38.3594 34.7595 38.329 34.7385C38.2987 34.7152 38.273 34.6872 38.252 34.6545L38.14 34.455ZM42.302 34.665C42.414 34.4223 42.5517 34.2333 42.715 34.098C42.8784 33.9603 43.0779 33.8915 43.3135 33.8915C43.3882 33.8915 43.4594 33.8997 43.527 33.916C43.597 33.9323 43.6589 33.958 43.7125 33.993L43.667 34.4585C43.653 34.5168 43.618 34.546 43.562 34.546C43.5294 34.546 43.4815 34.539 43.4185 34.525C43.3555 34.511 43.2844 34.504 43.205 34.504C43.093 34.504 42.9927 34.5203 42.904 34.553C42.8177 34.5857 42.7395 34.6347 42.6695 34.7C42.6019 34.763 42.54 34.8423 42.484 34.938C42.4304 35.0313 42.3814 35.1387 42.337 35.26V37.5H41.7105V33.9545H42.0675C42.1352 33.9545 42.1819 33.9673 42.2075 33.993C42.2332 34.0187 42.2507 34.063 42.26 34.126L42.302 34.665ZM44.8868 32.3445V35.379H45.0478C45.0945 35.379 45.133 35.3732 45.1633 35.3615C45.196 35.3475 45.2298 35.3207 45.2648 35.281L46.3848 34.0805C46.4175 34.0408 46.4513 34.0105 46.4863 33.9895C46.5237 33.9662 46.5727 33.9545 46.6333 33.9545H47.1968L45.8913 35.344C45.8283 35.4233 45.7607 35.4852 45.6883 35.5295C45.7303 35.5575 45.7677 35.5902 45.8003 35.6275C45.8353 35.6625 45.868 35.7033 45.8983 35.75L47.2843 37.5H46.7278C46.6742 37.5 46.6275 37.4918 46.5878 37.4755C46.5505 37.4568 46.5178 37.4242 46.4898 37.3775L45.3243 35.925C45.2893 35.876 45.2543 35.8445 45.2193 35.8305C45.1867 35.8142 45.1353 35.806 45.0653 35.806H44.8868V37.5H44.2603V32.3445H44.8868Z" fill="#232323"/>
<path d="M61.3482 33.12C61.3482 33.12 61.3482 33.0451 61.3482 32.904C61.3482 32.7628 61.3482 32.5468 61.3482 32.2732C61.3482 31.7174 61.3482 30.9024 61.3482 29.8425C61.3482 27.7228 61.3338 24.6326 61.3224 20.7388L61.3682 20.7878L20.4294 20.8137L20.5039 20.7388C20.5039 25.0214 20.5039 29.183 20.5039 33.1228L20.4322 33.048L49.6923 33.0825L58.2636 33.1027H60.557H61.1532H61.3596H61.1647H60.5742H58.2808L49.7238 33.1228L20.415 33.1574H20.3262V20.6582H20.4007L61.3482 20.6841H61.3969V20.736C61.3969 24.6412 61.3768 27.7401 61.3711 29.8684C61.3711 30.9225 61.3711 31.7347 61.3711 32.2876C61.3711 32.5584 61.3711 32.7657 61.3711 32.9097C61.3711 33.0537 61.3482 33.12 61.3482 33.12Z" fill="#263238"/>
<path d="M67.9329 122.498H5.26465V134.153H67.9329V122.498Z" fill="#263238"/>
<path d="M58.3124 36.873H23.792V122.498H58.3124V36.873Z" fill="#455A64"/>
<path d="M58.3124 54.8301H23.792V85.312H58.3124V54.8301Z" fill="#263238"/>
<path d="M51.739 122.497H34.0459V98.2392C34.0459 95.8821 34.9779 93.6215 36.637 91.9547C38.296 90.2879 40.5462 89.3516 42.8924 89.3516C44.0542 89.3516 45.2045 89.5815 46.2779 90.0281C47.3512 90.4747 48.3264 91.1294 49.1479 91.9547C49.9694 92.78 50.621 93.7598 51.0656 94.8381C51.5101 95.9164 51.739 97.0721 51.739 98.2392V122.497Z" fill="#263238"/>
<path d="M116.147 101.857H42.0093C41.0952 101.853 40.2198 101.485 39.575 100.834C38.9302 100.183 38.5686 99.3019 38.5693 98.3834C38.5686 97.465 38.9302 96.5837 39.575 95.9327C40.2198 95.2817 41.0952 94.914 42.0093 94.9102H116.147C117.061 94.9147 117.936 95.2827 118.581 95.9335C119.225 96.5844 119.587 97.4653 119.587 98.3834C119.587 99.3016 119.225 100.182 118.581 100.833C117.936 101.484 117.061 101.852 116.147 101.857Z" fill="#6D30A7"/>
<g opacity="0.5">
<path d="M42.064 100.726C43.3512 100.726 44.3946 99.6775 44.3946 98.3844C44.3946 97.0913 43.3512 96.043 42.064 96.043C40.7768 96.043 39.7334 97.0913 39.7334 98.3844C39.7334 99.6775 40.7768 100.726 42.064 100.726Z" fill="white"/>
</g>
<path d="M47.7891 101.858L52.9921 94.9141H61.4631L55.9533 101.858H47.7891Z" fill="white"/>
<path d="M66.0098 101.858L71.2128 94.9141H79.6838L74.174 101.858H66.0098Z" fill="white"/>
<path d="M84.2295 101.858L89.4325 94.9141H97.9035L92.3938 101.858H84.2295Z" fill="white"/>
<path d="M102.45 101.858L107.653 94.9141H116.124L110.614 101.858H102.45Z" fill="white"/>
<path d="M116.147 101.856H116.256C116.365 101.852 116.474 101.843 116.583 101.827C117.008 101.772 117.419 101.637 117.795 101.43C118.07 101.271 118.323 101.077 118.549 100.854C118.817 100.584 119.041 100.273 119.212 99.9323C119.451 99.4525 119.575 98.923 119.573 98.3864C119.572 97.8498 119.446 97.3209 119.205 96.842C118.964 96.3631 118.615 95.9475 118.186 95.6285C117.756 95.3094 117.258 95.0958 116.732 95.0047C116.404 94.9557 116.072 94.9374 115.74 94.9499H112.486H102.106L42.0151 94.9701C41.2957 94.9722 40.5955 95.2033 40.015 95.6302C39.4346 96.0571 39.0037 96.6578 38.7843 97.3461C38.6827 97.6872 38.6305 98.0413 38.6295 98.3973C38.635 98.7515 38.6929 99.1029 38.8015 99.4399C39.0249 100.111 39.4508 100.695 40.0201 101.112C40.5893 101.528 41.2736 101.756 41.9778 101.764H48.2845H64.2403L91.2558 101.778L109.471 101.804L114.421 101.819H115.711H116.15C116.15 101.819 116.001 101.819 115.711 101.819H114.421H109.471L91.2558 101.842L64.2403 101.859H41.9778C41.2423 101.851 40.5277 101.613 39.9332 101.178C39.3387 100.743 38.8941 100.132 38.6611 99.4312C38.548 99.0792 38.4871 98.7124 38.4805 98.3426C38.4817 97.9708 38.5368 97.6012 38.6439 97.2453C38.8733 96.5274 39.323 95.9008 39.9286 95.4553C40.5341 95.0099 41.2645 94.7685 42.0151 94.7656L102.106 94.7887H112.486H115.74C116.076 94.7774 116.413 94.7966 116.746 94.8463C117.293 94.9362 117.81 95.1559 118.255 95.487C118.701 95.8181 119.061 96.2512 119.306 96.7502C119.551 97.2492 119.675 97.7997 119.666 98.3562C119.657 98.9126 119.516 99.4589 119.255 99.9496C119.08 100.294 118.852 100.607 118.578 100.877C118.348 101.101 118.091 101.294 117.813 101.453C117.432 101.658 117.017 101.79 116.589 101.842C116.442 101.856 116.294 101.86 116.147 101.856Z" fill="#263238"/>
<path d="M55.0726 46.4753C55.0726 46.5156 49.13 46.5502 41.7999 46.5502C34.4699 46.5502 28.5244 46.5156 28.5244 46.4753C28.5244 46.4349 34.467 46.4004 41.7999 46.4004C49.1329 46.4004 55.0726 46.4321 55.0726 46.4753Z" fill="#263238"/>
<path d="M55.0726 44.0143C55.0726 44.0547 49.13 44.0892 41.7999 44.0892C34.4699 44.0892 28.5244 44.0633 28.5244 44.0143C28.5244 43.9654 34.467 43.9395 41.7999 43.9395C49.1329 43.9395 55.0726 43.9711 55.0726 44.0143Z" fill="#263238"/>
<path d="M55.0726 48.8386C55.0726 48.8789 49.13 48.9134 41.7999 48.9134C34.4699 48.9134 28.5244 48.8789 28.5244 48.8386C28.5244 48.7982 34.467 48.7637 41.7999 48.7637C49.1329 48.7637 55.0726 48.7954 55.0726 48.8386Z" fill="#263238"/>
<path d="M67.9417 122.499C67.9417 122.539 53.9122 122.574 36.6119 122.574C19.3116 122.574 5.27637 122.539 5.27637 122.499C5.27637 122.458 19.303 122.424 36.6119 122.424C53.9208 122.424 67.9417 122.456 67.9417 122.499Z" fill="#455A64"/>
<path d="M18.3743 134.328C18.3313 134.328 18.2998 131.667 18.2998 128.384C18.2998 125.101 18.3313 122.439 18.3743 122.439C18.4173 122.439 18.4489 125.101 18.4489 128.384C18.4489 131.667 18.4145 134.328 18.3743 134.328Z" fill="#455A64"/>
<path d="M25.4486 134.328C25.4056 134.328 25.374 131.667 25.374 128.384C25.374 125.101 25.4056 122.439 25.4486 122.439C25.4916 122.439 25.5231 125.101 25.5231 128.384C25.5231 131.667 25.4887 134.328 25.4486 134.328Z" fill="#455A64"/>
<path d="M32.5208 134.328C32.4807 134.328 32.4463 131.667 32.4463 128.384C32.4463 125.101 32.4807 122.439 32.5208 122.439C32.561 122.439 32.5982 125.101 32.5982 128.384C32.5982 131.667 32.5638 134.328 32.5208 134.328Z" fill="#455A64"/>
<path d="M39.596 134.328C39.5559 134.328 39.5215 131.667 39.5215 128.384C39.5215 125.101 39.5559 122.439 39.596 122.439C39.6361 122.439 39.6706 125.101 39.6706 128.384C39.6706 131.667 39.639 134.328 39.596 134.328Z" fill="#455A64"/>
<path d="M46.6712 134.328C46.6311 134.328 46.5967 131.667 46.5967 128.384C46.5967 125.101 46.6311 122.439 46.6712 122.439C46.7113 122.439 46.7457 125.101 46.7457 128.384C46.7457 131.667 46.7285 134.328 46.6712 134.328Z" fill="#455A64"/>
<path d="M53.7454 134.328C53.7053 134.328 53.6709 131.667 53.6709 128.384C53.6709 125.101 53.7053 122.439 53.7454 122.439C53.7856 122.439 53.82 125.101 53.82 128.384C53.82 131.667 53.7884 134.328 53.7454 134.328Z" fill="#455A64"/>
<path d="M60.8206 134.328C60.7805 134.328 60.7461 131.667 60.7461 128.384C60.7461 125.101 60.7805 122.439 60.8206 122.439C60.8608 122.439 60.8952 125.101 60.8952 128.384C60.8952 131.667 60.8608 134.328 60.8206 134.328Z" fill="#455A64"/>
<path d="M11.7718 134.268C11.7288 134.268 11.6973 131.606 11.6973 128.323C11.6973 125.04 11.7288 122.379 11.7718 122.379C11.8148 122.379 11.8463 125.04 11.8463 128.323C11.8463 131.606 11.8119 134.268 11.7718 134.268Z" fill="#455A64"/>
<path d="M52.2289 58.6016H30.9668V80.792H52.2289V58.6016Z" fill="white"/>
<path d="M45.3898 71.4393C45.6151 70.9291 45.7369 70.3788 45.7482 69.8207C46.1122 69.5327 47.4194 69.2879 47.4194 69.2879L47.3449 68.7955C46.7688 68.8228 46.1916 68.7822 45.6249 68.6745C45.5185 68.2498 45.3463 67.8445 45.1146 67.4735C45.3006 67.1268 45.5564 66.8227 45.8657 66.5807L45.5504 66.1948C45.2492 66.4325 44.9163 66.6264 44.5614 66.7708C44.3344 66.5374 44.0825 66.3298 43.8103 66.1516C43.7415 65.7052 44.1916 64.4236 44.1916 64.4236L43.73 64.2422C43.4617 64.754 43.1346 65.2325 42.7554 65.6678C42.3559 65.545 41.9404 65.4829 41.5227 65.4835C41.3234 65.1415 41.192 64.764 41.1357 64.3718L40.6455 64.4495C40.6972 64.8241 40.6972 65.204 40.6455 65.5785C40.287 65.6542 39.94 65.7772 39.6135 65.9443C39.1778 65.7542 38.3092 64.7519 38.3092 64.7519L37.9193 65.0687C38.2284 65.5478 38.4796 66.0621 38.6675 66.6009C38.3225 66.9209 38.032 67.2954 37.8075 67.7097C37.4452 67.7066 37.0866 67.6363 36.7497 67.5023L36.572 67.9747C36.8971 68.1048 37.2044 68.2761 37.4864 68.4844C37.3735 68.8475 37.3108 69.2245 37.3001 69.6047C36.79 69.8186 36.2585 69.977 35.7148 70.0771L35.7922 70.5753C36.3316 70.5455 36.8725 70.5813 37.4033 70.6819C37.5068 71.142 37.6871 71.5811 37.9365 71.9807C37.7507 72.2902 37.5109 72.5634 37.2284 72.7871L37.5438 73.1788C37.8195 72.962 38.1221 72.7819 38.4439 72.6431C38.8578 73.0838 39.36 73.4313 39.9174 73.6627C40.0521 74.1551 39.9403 75.3907 39.9403 75.3907L40.4391 75.4569C40.5544 74.9371 40.7345 74.4339 40.9752 73.9593C41.3501 74.0083 41.7297 74.0083 42.1046 73.9593C42.2981 73.9314 42.4897 73.891 42.678 73.8383C42.8851 74.125 43.0413 74.4456 43.1395 74.7859L43.6211 74.639C43.5197 74.2781 43.4667 73.9052 43.4634 73.5302C43.9932 73.2572 44.46 72.8755 44.8337 72.4099C45.3617 72.5831 45.8693 72.8139 46.3473 73.0982L46.6139 72.6719C46.1558 72.3145 45.7445 71.9004 45.3898 71.4393Z" fill="#6D30A7"/>
<g opacity="0.2">
<path d="M44.4836 70.9144C44.2772 70.8396 44.26 70.4076 44.1253 69.8373C44.1253 69.7682 44.088 69.6933 44.0708 69.6184C44.0536 69.5436 44.025 69.4658 44.002 69.388C43.948 69.2243 43.8848 69.0637 43.8128 68.9071C43.657 68.5636 43.4459 68.2483 43.1879 67.974C42.9246 67.7048 42.6196 67.4801 42.2849 67.3087C42.1321 67.231 41.9751 67.1618 41.8148 67.1013C41.7374 67.0754 41.6628 67.0437 41.5883 67.0207C41.5138 66.9976 41.4421 66.9746 41.3704 66.9573C40.8114 66.7989 40.3814 66.7672 40.3155 66.557C40.3079 66.5287 40.3066 66.4991 40.3115 66.4703C40.3165 66.4415 40.3276 66.414 40.3442 66.39C40.3942 66.3122 40.4596 66.2456 40.5362 66.1941C40.7945 66.0223 41.0889 65.9129 41.3962 65.8744C41.4937 65.8572 41.5969 65.8543 41.7058 65.8456C41.8148 65.837 41.9266 65.8456 42.0441 65.8456C42.2948 65.8668 42.5427 65.9141 42.7837 65.9868C43.0543 66.0685 43.3135 66.1847 43.5548 66.3324C43.8206 66.4917 44.0644 66.6854 44.2801 66.9084C44.6892 67.3415 44.9847 67.87 45.1401 68.4463C45.2028 68.6913 45.2393 68.9423 45.249 69.1951C45.2548 69.3083 45.2548 69.4217 45.249 69.5349C45.2408 69.6382 45.2274 69.7411 45.2089 69.8431C45.1603 70.1548 45.0395 70.4508 44.8563 70.7071C44.8022 70.7823 44.7329 70.8452 44.6528 70.8914C44.6281 70.9077 44.6001 70.9182 44.5708 70.9222C44.5415 70.9262 44.5118 70.9235 44.4836 70.9144Z" fill="white"/>
</g>
<path d="M38.3971 64.4777C38.4544 64.5468 38.3283 64.7657 38.1104 64.9299C38.0443 64.9861 37.9733 65.0362 37.8983 65.0796C37.7636 65.1516 37.6546 65.1747 37.6116 65.1286C37.5686 65.0825 37.6804 64.855 37.8983 64.6764C38.1162 64.4979 38.3398 64.4057 38.3971 64.4777Z" fill="#6D30A7"/>
<path opacity="0.3" d="M37.916 65.0676C38.0607 64.9806 38.1904 64.8707 38.3002 64.7422C38.3632 64.8113 38.432 64.8919 38.5066 64.9697C38.3435 65.0616 38.1661 65.1249 37.982 65.1569L37.916 65.0676Z" fill="black"/>
<path d="M36.6951 67.2163C36.7811 67.2451 36.7725 67.4871 36.6779 67.752C36.6496 67.8342 36.6131 67.9134 36.569 67.9882C36.4916 68.1178 36.4084 68.1955 36.3511 68.1754C36.2938 68.1552 36.2737 67.9047 36.3683 67.6397C36.4629 67.3747 36.6034 67.1847 36.6951 67.2163Z" fill="#6D30A7"/>
<path opacity="0.3" d="M36.5742 67.9674C36.6648 67.8237 36.7217 67.6612 36.7405 67.4922C36.8265 67.5267 36.924 67.5584 37.0272 67.5901C36.934 67.7492 36.8148 67.8914 36.6746 68.0106L36.5742 67.9674Z" fill="black"/>
<path d="M35.5282 69.8483C35.6171 69.8339 35.726 70.0471 35.7748 70.3235C35.7879 70.4103 35.7946 70.4979 35.7948 70.5856C35.7948 70.7383 35.7547 70.8448 35.6945 70.8563C35.6343 70.8679 35.4938 70.6576 35.448 70.3811C35.4021 70.1047 35.4365 69.8656 35.5282 69.8483Z" fill="#6D30A7"/>
<path opacity="0.3" d="M35.7949 70.5607C35.7908 70.392 35.7608 70.2249 35.7061 70.0653L35.9927 70.002C35.9895 70.1889 35.9546 70.374 35.8895 70.5492L35.7949 70.5607Z" fill="black"/>
<path d="M36.9557 72.6818C37.0245 72.6242 37.2424 72.751 37.4087 72.9698C37.4637 73.0363 37.5127 73.1076 37.5548 73.183C37.6294 73.3183 37.6523 73.4278 37.6064 73.471C37.5606 73.5142 37.3198 73.4047 37.1535 73.183C36.9873 72.9612 36.8841 72.7394 36.9557 72.6818Z" fill="#6D30A7"/>
<path opacity="0.3" d="M37.5543 73.151C37.4761 72.9991 37.3643 72.8671 37.2275 72.7651C37.2992 72.7075 37.3766 72.6384 37.454 72.5664C37.5447 72.7264 37.6077 72.9007 37.6403 73.0819L37.5543 73.151Z" fill="black"/>
<path d="M39.6731 75.482C39.6731 75.3927 39.9196 75.3438 40.1977 75.3783C40.2843 75.3867 40.3698 75.404 40.4528 75.4302C40.5962 75.4762 40.6908 75.5396 40.6822 75.6001C40.6736 75.6606 40.4385 75.7383 40.1604 75.7066C39.8824 75.675 39.6645 75.5742 39.6731 75.482Z" fill="#6D30A7"/>
<path opacity="0.3" d="M40.4216 75.4245C40.2581 75.3806 40.0889 75.3621 39.9199 75.3697C39.9199 75.2776 39.9371 75.171 39.9429 75.0645C40.1211 75.1192 40.2888 75.2039 40.4388 75.315L40.4216 75.4245Z" fill="black"/>
<path d="M42.9325 74.9756C42.9038 74.8863 43.0988 74.748 43.3654 74.6616C43.4473 74.6341 43.5318 74.6148 43.6176 74.604C43.7696 74.5868 43.8785 74.604 43.9043 74.6616C43.9301 74.7192 43.738 74.8892 43.4714 74.9756C43.2048 75.062 42.9583 75.062 42.9325 74.9756Z" fill="#6D30A7"/>
<path opacity="0.3" d="M43.5977 74.6058C43.4281 74.6211 43.2644 74.6753 43.1189 74.7642C43.0931 74.675 43.0588 74.577 43.0215 74.4762C43.203 74.4526 43.3872 74.4604 43.5661 74.4993L43.5977 74.6058Z" fill="black"/>
<path d="M46.3206 73.3589C46.2403 73.3128 46.2977 73.0709 46.4439 72.8376C46.488 72.7622 46.5399 72.6918 46.5987 72.6273C46.699 72.515 46.7965 72.4574 46.8481 72.4891C46.8997 72.5208 46.871 72.7771 46.7248 73.0104C46.5786 73.2437 46.398 73.4078 46.3206 73.3589Z" fill="#6D30A7"/>
<path opacity="0.3" d="M46.5822 72.6454C46.4756 72.7754 46.3895 72.9211 46.3271 73.0774L46.0576 72.9276C46.1828 72.789 46.3301 72.6722 46.4933 72.582L46.5822 72.6454Z" fill="black"/>
<path opacity="0.3" d="M39.8049 70.5771C39.8479 70.9025 39.7074 71.1934 39.4896 71.2222C39.2717 71.251 39.0567 71.012 39.0137 70.6865C38.9707 70.3611 39.1083 70.0702 39.329 70.0414C39.5498 70.0126 39.759 70.2517 39.8049 70.5771Z" fill="black"/>
<path d="M39.6103 70.2725C39.6562 70.5979 39.5128 70.8888 39.295 70.9176C39.0771 70.9464 38.865 70.7074 38.8191 70.3819C38.7732 70.0565 38.9166 69.7656 39.1344 69.7368C39.3523 69.708 39.5616 69.9384 39.6103 70.2725Z" fill="#6D30A7"/>
<path opacity="0.2" d="M39.6103 70.2725C39.6562 70.5979 39.5128 70.8888 39.295 70.9176C39.0771 70.9464 38.865 70.7074 38.8191 70.3819C38.7732 70.0565 38.9166 69.7656 39.1344 69.7368C39.3523 69.708 39.5616 69.9384 39.6103 70.2725Z" fill="white"/>
<path opacity="0.3" d="M39.18 67.2038C39.4466 67.0109 39.7533 67.0022 39.8938 67.1808C40.0342 67.3593 39.9138 67.6617 39.6472 67.8547C39.3806 68.0477 39.0596 68.0563 38.9306 67.8777C38.8016 67.6992 38.9134 67.391 39.18 67.2038Z" fill="black"/>
<path d="M38.9648 66.9198C39.2285 66.7268 39.5381 66.7153 39.6786 66.8968C39.819 67.0782 39.6957 67.3777 39.4291 67.5707C39.1625 67.7636 38.8558 67.7723 38.7154 67.5937C38.5749 67.4152 38.701 67.1041 38.9648 66.9198Z" fill="#6D30A7"/>
<path opacity="0.2" d="M38.9648 66.9198C39.2285 66.7268 39.5381 66.7153 39.6786 66.8968C39.819 67.0782 39.6957 67.3777 39.4291 67.5707C39.1625 67.7636 38.8558 67.7723 38.7154 67.5937C38.5749 67.4152 38.701 67.1041 38.9648 66.9198Z" fill="white"/>
<path opacity="0.3" d="M41.2098 72.1925C41.217 72.2434 41.2142 72.2953 41.2014 72.345C41.1885 72.3948 41.166 72.4416 41.1351 72.4826C41.1042 72.5235 41.0654 72.558 41.0212 72.5838C40.9769 72.6096 40.928 72.6264 40.8772 72.6331C40.8008 72.6438 40.723 72.6315 40.6535 72.5977C40.5841 72.5639 40.5262 72.5102 40.4871 72.4433C40.4481 72.3764 40.4297 72.2994 40.4343 72.222C40.4388 72.1446 40.4662 72.0703 40.5128 72.0086C40.5594 71.9468 40.6232 71.9003 40.6962 71.875C40.7691 71.8497 40.8479 71.8467 40.9225 71.8664C40.9971 71.8861 41.0643 71.9276 41.1154 71.9856C41.1666 72.0437 41.1994 72.1157 41.2098 72.1925Z" fill="black"/>
<path d="M41.1811 71.9826C41.1887 72.0338 41.1862 72.0859 41.1736 72.136C41.1609 72.1862 41.1385 72.2333 41.1075 72.2746C41.0766 72.3159 41.0377 72.3505 40.9932 72.3766C40.9488 72.4026 40.8996 72.4195 40.8485 72.4262C40.7722 72.4368 40.6945 72.4244 40.6252 72.3907C40.5559 72.3569 40.498 72.3033 40.459 72.2366C40.42 72.1699 40.4015 72.0931 40.4059 72.0158C40.4103 71.9385 40.4374 71.8643 40.4837 71.8025C40.5301 71.7407 40.5936 71.6941 40.6663 71.6685C40.739 71.6429 40.8176 71.6396 40.8922 71.6588C40.9668 71.6781 41.0341 71.7191 41.0855 71.7768C41.1369 71.8344 41.1701 71.906 41.1811 71.9826Z" fill="#6D30A7"/>
<path opacity="0.3" d="M41.1811 71.9826C41.1887 72.0338 41.1862 72.0859 41.1736 72.136C41.1609 72.1862 41.1385 72.2333 41.1075 72.2746C41.0766 72.3159 41.0377 72.3505 40.9932 72.3766C40.9488 72.4026 40.8996 72.4195 40.8485 72.4262C40.7722 72.4368 40.6945 72.4244 40.6252 72.3907C40.5559 72.3569 40.498 72.3033 40.459 72.2366C40.42 72.1699 40.4015 72.0931 40.4059 72.0158C40.4103 71.9385 40.4374 71.8643 40.4837 71.8025C40.5301 71.7407 40.5936 71.6941 40.6663 71.6685C40.739 71.6429 40.8176 71.6396 40.8922 71.6588C40.9668 71.6781 41.0341 71.7191 41.0855 71.7768C41.1369 71.8344 41.1701 71.906 41.1811 71.9826Z" fill="white"/>
<path opacity="0.3" d="M43.3078 68.3793C43.2536 68.4573 43.1777 68.5173 43.0896 68.5519C43.0016 68.5865 42.9052 68.5942 42.8128 68.5738C42.7204 68.5535 42.6361 68.5061 42.5705 68.4377C42.5049 68.3693 42.4609 68.2828 42.4441 68.1893C42.4273 68.0958 42.4385 67.9994 42.4762 67.9123C42.5139 67.8251 42.5765 67.7511 42.656 67.6997C42.7355 67.6482 42.8284 67.6216 42.923 67.6231C43.0176 67.6246 43.1096 67.6543 43.1874 67.7083C43.2393 67.7443 43.2836 67.7903 43.3177 67.8435C43.3519 67.8968 43.3752 67.9563 43.3864 68.0187C43.3976 68.081 43.3964 68.145 43.3829 68.2069C43.3694 68.2688 43.3439 68.3274 43.3078 68.3793Z" fill="black"/>
<path d="M43.4543 68.1665C43.4001 68.2444 43.3242 68.3044 43.2361 68.339C43.148 68.3736 43.0517 68.3813 42.9593 68.3609C42.8669 68.3406 42.7826 68.2932 42.717 68.2248C42.6514 68.1564 42.6074 68.07 42.5906 67.9764C42.5738 67.8829 42.585 67.7865 42.6227 67.6994C42.6604 67.6122 42.723 67.5382 42.8025 67.4868C42.882 67.4353 42.9749 67.4087 43.0695 67.4102C43.164 67.4118 43.256 67.4414 43.3339 67.4954C43.3858 67.5314 43.43 67.5774 43.4642 67.6307C43.4984 67.6839 43.5217 67.7434 43.5329 67.8058C43.5441 67.8682 43.5429 67.9321 43.5294 67.994C43.5159 68.0559 43.4904 68.1145 43.4543 68.1665Z" fill="#6D30A7"/>
<path opacity="0.3" d="M43.4543 68.1665C43.4001 68.2444 43.3242 68.3044 43.2361 68.339C43.148 68.3736 43.0517 68.3813 42.9593 68.3609C42.8669 68.3406 42.7826 68.2932 42.717 68.2248C42.6514 68.1564 42.6074 68.07 42.5906 67.9764C42.5738 67.8829 42.585 67.7865 42.6227 67.6994C42.6604 67.6122 42.723 67.5382 42.8025 67.4868C42.882 67.4353 42.9749 67.4087 43.0695 67.4102C43.164 67.4118 43.256 67.4414 43.3339 67.4954C43.3858 67.5314 43.43 67.5774 43.4642 67.6307C43.4984 67.6839 43.5217 67.7434 43.5329 67.8058C43.5441 67.8682 43.5429 67.9321 43.5294 67.994C43.5159 68.0559 43.4904 68.1145 43.4543 68.1665Z" fill="white"/>
<path opacity="0.3" d="M43.2337 72.3017C43.2444 72.3774 43.2247 72.4541 43.179 72.5151C43.1333 72.5762 43.0653 72.6165 42.9901 72.6272C42.9141 72.6375 42.8371 72.617 42.776 72.5703C42.715 72.5236 42.675 72.4544 42.6647 72.3781C42.6544 72.3017 42.6748 72.2243 42.7213 72.163C42.7678 72.1017 42.8367 72.0615 42.9127 72.0512C42.9502 72.0463 42.9882 72.049 43.0247 72.059C43.0611 72.069 43.0952 72.0861 43.1251 72.1094C43.1549 72.1327 43.1799 72.1617 43.1985 72.1947C43.2172 72.2277 43.2291 72.2641 43.2337 72.3017Z" fill="black"/>
<path d="M43.2141 72.15C43.222 72.2064 43.2131 72.2639 43.1885 72.3152C43.164 72.3665 43.1248 72.4094 43.0759 72.4384C43.0271 72.4673 42.9708 72.4811 42.9142 72.4779C42.8576 72.4747 42.8032 72.4547 42.7579 72.4205C42.7126 72.3863 42.6784 72.3393 42.6597 72.2855C42.6409 72.2318 42.6385 72.1736 42.6526 72.1185C42.6668 72.0633 42.6969 72.0136 42.7392 71.9756C42.7815 71.9377 42.834 71.9131 42.8901 71.9052C42.9654 71.8945 43.0418 71.9143 43.1025 71.9602C43.1633 72.0061 43.2034 72.0744 43.2141 72.15Z" fill="#6D30A7"/>
<path opacity="0.3" d="M43.2141 72.15C43.222 72.2064 43.2131 72.2639 43.1885 72.3152C43.164 72.3665 43.1248 72.4094 43.0759 72.4384C43.0271 72.4673 42.9708 72.4811 42.9142 72.4779C42.8576 72.4747 42.8032 72.4547 42.7579 72.4205C42.7126 72.3863 42.6784 72.3393 42.6597 72.2855C42.6409 72.2318 42.6385 72.1736 42.6526 72.1185C42.6668 72.0633 42.6969 72.0136 42.7392 71.9756C42.7815 71.9377 42.834 71.9131 42.8901 71.9052C42.9654 71.8945 43.0418 71.9143 43.1025 71.9602C43.1633 72.0061 43.2034 72.0744 43.2141 72.15Z" fill="white"/>
<path d="M47.5886 69.5036C47.4997 69.5036 47.3908 69.3078 47.3449 69.0313C47.3287 68.9469 47.322 68.8609 47.3249 68.775C47.3249 68.6252 47.3621 68.5187 47.4223 68.51C47.4825 68.5014 47.6201 68.703 47.666 68.9795C47.7119 69.256 47.6861 69.4864 47.5886 69.5036Z" fill="#6D30A7"/>
<path opacity="0.3" d="M47.3325 68.7969C47.3352 68.9636 47.3642 69.1289 47.4185 69.2865L47.1318 69.3498C47.1352 69.165 47.1691 68.9821 47.2322 68.8084L47.3325 68.7969Z" fill="black"/>
<path d="M46.117 66.6742C46.0482 66.7318 45.8504 66.6079 45.6727 66.3862C45.6168 66.3197 45.5669 66.2484 45.5236 66.173C45.452 66.0406 45.429 65.9311 45.4749 65.885C45.5208 65.839 45.7444 65.9542 45.9221 66.173C46.0998 66.3919 46.1887 66.6166 46.117 66.6742Z" fill="#6D30A7"/>
<path opacity="0.3" d="M45.5352 66.2031C45.6125 66.3525 45.7234 66.4817 45.8592 66.5804C45.7846 66.638 45.7101 66.7071 45.6327 66.7791C45.5435 66.6207 45.4815 66.4484 45.4492 66.2694L45.5352 66.2031Z" fill="black"/>
<path d="M44.4573 64.3687C44.4258 64.4522 44.1907 64.4436 43.9327 64.3457C43.8521 64.3143 43.7744 64.2757 43.7005 64.2305C43.5715 64.1527 43.4999 64.0692 43.5199 64.0145C43.54 63.9598 43.7865 63.9396 44.0474 64.0375C44.3083 64.1354 44.4889 64.2852 44.4573 64.3687Z" fill="#6D30A7"/>
<path opacity="0.3" d="M43.7178 64.2422C43.8635 64.3242 44.0212 64.3826 44.1851 64.415C44.1564 64.5014 44.122 64.6022 44.0905 64.703C43.9328 64.6073 43.7923 64.4856 43.6748 64.343L43.7178 64.2422Z" fill="black"/>
<path d="M41.342 64.1838C41.342 64.2731 41.1471 64.3825 40.8747 64.4315C40.7905 64.4461 40.7051 64.4529 40.6196 64.4516C40.4705 64.4516 40.3645 64.4142 40.353 64.3537C40.3415 64.2932 40.5479 64.155 40.8203 64.1089C41.0926 64.0628 41.3277 64.0945 41.342 64.1838Z" fill="#6D30A7"/>
<path opacity="0.3" d="M40.6396 64.4506C40.8077 64.459 40.9754 64.4284 41.1299 64.3613C41.1434 64.4584 41.1626 64.5545 41.1872 64.6493C41.0052 64.6472 40.8249 64.6141 40.654 64.5514L40.6396 64.4506Z" fill="black"/>
<path opacity="0.3" d="M44.1483 71.154C44.0365 71.4622 43.7756 71.6522 43.5749 71.5774C43.3743 71.5025 43.2883 71.1886 43.4029 70.8775C43.5176 70.5665 43.7756 70.3793 43.9763 70.457C44.1769 70.5348 44.2457 70.8487 44.1483 71.154Z" fill="black"/>
<path d="M44.2797 70.9691C44.1679 71.2802 43.9099 71.4674 43.7064 71.3925C43.5028 71.3176 43.4197 71.0037 43.5372 70.6955C43.6548 70.3874 43.907 70.1973 44.1106 70.2722C44.3141 70.3471 44.3915 70.661 44.2797 70.9691Z" fill="#6D30A7"/>
<path opacity="0.3" d="M44.2797 70.9691C44.1679 71.2802 43.9099 71.4674 43.7064 71.3925C43.5028 71.3176 43.4197 71.0037 43.5372 70.6955C43.6548 70.3874 43.907 70.1973 44.1106 70.2722C44.3141 70.3471 44.3915 70.661 44.2797 70.9691Z" fill="white"/>
<path opacity="0.3" d="M42.0895 69.5172C42.1054 69.634 42.0865 69.753 42.0352 69.859C41.9838 69.9651 41.9023 70.0534 41.8009 70.1129C41.6995 70.1724 41.5829 70.2003 41.4657 70.1932C41.3486 70.1861 41.2361 70.1442 41.1427 70.0728C41.0492 70.0015 40.9789 69.9039 40.9406 69.7924C40.9023 69.6809 40.8979 69.5605 40.9277 69.4465C40.9576 69.3324 41.0204 69.2298 41.1083 69.1517C41.1963 69.0735 41.3053 69.0233 41.4216 69.0074C41.5774 68.9861 41.7353 69.0278 41.8606 69.1234C41.9858 69.219 42.0682 69.3606 42.0895 69.5172Z" fill="black"/>
<path d="M42.0437 69.1754C42.0595 69.2921 42.0406 69.4109 41.9893 69.5168C41.938 69.6228 41.8566 69.711 41.7554 69.7705C41.6542 69.83 41.5377 69.858 41.4207 69.8511C41.3036 69.8441 41.1912 69.8025 41.0977 69.7314C41.0042 69.6604 40.9338 69.5631 40.8952 69.4518C40.8567 69.3405 40.8519 69.2203 40.8813 69.1063C40.9107 68.9923 40.9731 68.8896 41.0606 68.8111C41.1481 68.7327 41.2568 68.6821 41.3729 68.6656C41.529 68.6443 41.6873 68.6859 41.813 68.7814C41.9387 68.877 42.0216 69.0186 42.0437 69.1754Z" fill="#6D30A7"/>
<path opacity="0.2" d="M42.0437 69.1754C42.0595 69.2921 42.0406 69.4109 41.9893 69.5168C41.938 69.6228 41.8566 69.711 41.7554 69.7705C41.6542 69.83 41.5377 69.858 41.4207 69.8511C41.3036 69.8441 41.1912 69.8025 41.0977 69.7314C41.0042 69.6604 40.9338 69.5631 40.8952 69.4518C40.8567 69.3405 40.8519 69.2203 40.8813 69.1063C40.9107 68.9923 40.9731 68.8896 41.0606 68.8111C41.1481 68.7327 41.2568 68.6821 41.3729 68.6656C41.529 68.6443 41.6873 68.6859 41.813 68.7814C41.9387 68.877 42.0216 69.0186 42.0437 69.1754Z" fill="white"/>
<g opacity="0.2">
<path d="M44.0566 72.5381C44.0881 72.5784 44.0566 72.6792 43.9248 72.8261C43.7472 73.0172 43.5412 73.1794 43.3141 73.307C43.1589 73.3972 42.9969 73.4752 42.8297 73.5403C42.6356 73.6147 42.4363 73.6744 42.2334 73.7189C41.282 73.9215 40.2895 73.7635 39.447 73.2754C39.2665 73.1728 39.0949 73.0553 38.9339 72.924C38.7952 72.8087 38.6649 72.6836 38.544 72.5496C38.3676 72.3582 38.2216 72.1406 38.1112 71.9045C38.0395 71.7346 38.028 71.6165 38.071 71.5963C38.1656 71.5358 38.4322 71.8094 38.9052 72.1464C39.0228 72.2299 39.1546 72.3163 39.298 72.4027C39.4413 72.4891 39.6018 72.5726 39.7709 72.6504C40.5024 72.9928 41.315 73.1216 42.1159 73.0219C42.2921 73.0011 42.4672 72.9713 42.6405 72.9326C42.8039 72.8952 42.9587 72.8549 43.0963 72.8117C43.6467 72.6302 43.9878 72.4488 44.0566 72.5381Z" fill="black"/>
</g>
<g opacity="0.2">
<path d="M37.8123 70.1084C37.8823 70.0994 37.9534 70.1113 38.0168 70.1425C38.0801 70.1737 38.133 70.2228 38.1689 70.2838C38.2048 70.3449 38.2221 70.4151 38.2186 70.4859C38.2152 70.5567 38.1912 70.625 38.1496 70.6823C38.108 70.7395 38.0507 70.7833 37.9846 70.8082C37.9185 70.833 37.8466 70.8379 37.7778 70.8222C37.709 70.8065 37.6463 70.7709 37.5974 70.7198C37.5485 70.6687 37.5156 70.6043 37.5027 70.5346C37.495 70.4862 37.4969 70.4367 37.5083 70.389C37.5197 70.3413 37.5403 70.2963 37.5691 70.2567C37.5979 70.217 37.6342 70.1835 37.676 70.1581C37.7177 70.1326 37.764 70.1157 37.8123 70.1084Z" fill="black"/>
</g>
<path d="M41.5677 78.4158C39.8837 78.4158 38.2375 77.9141 36.8373 76.9741C35.4371 76.034 34.3458 74.698 33.7015 73.1349C33.0572 71.5717 32.8888 69.8517 33.2175 68.1924C33.5463 66.5331 34.3574 65.009 35.5484 63.8129C36.7394 62.6167 38.2567 61.8023 39.9085 61.4726C41.5602 61.1429 43.2722 61.3127 44.8279 61.9605C46.3835 62.6084 47.7131 63.7052 48.6482 65.1122C49.5834 66.5192 50.0823 68.1732 50.0817 69.8651C50.0787 72.1324 49.1806 74.306 47.5845 75.909C45.9884 77.512 43.8246 78.4135 41.5677 78.4158ZM41.5677 61.8875C39.9972 61.8875 38.462 62.3554 37.1561 63.2319C35.8503 64.1085 34.8325 65.3545 34.2315 66.8122C33.6305 68.2699 33.4732 69.8739 33.7796 71.4214C34.086 72.9689 34.8423 74.3904 35.9528 75.5061C37.0633 76.6218 38.4782 77.3816 40.0186 77.6894C41.5589 77.9972 43.1555 77.8392 44.6065 77.2354C46.0574 76.6316 47.2976 75.6091 48.1701 74.2972C49.0427 72.9853 49.5084 71.4429 49.5084 69.8651C49.5069 67.7498 48.6698 65.7215 47.1809 64.2257C45.6921 62.73 43.6732 61.889 41.5677 61.8875Z" fill="#263238"/>
<path d="M47.1234 63.7773L35.499 75.4356L35.8545 75.8157L47.5419 64.1892L47.1234 63.7773Z" fill="#263238"/>
<path d="M32.699 57.666H31.9766V59.2788H32.699V57.666Z" fill="#E0E0E0"/>
<path d="M51.5124 57.666H50.79V59.2788H51.5124V57.666Z" fill="#E0E0E0"/>
<path d="M32.2576 79.752H31.5352V81.3647H32.2576V79.752Z" fill="#E0E0E0"/>
<path d="M51.5124 79.752H50.79V81.3647H51.5124V79.752Z" fill="#E0E0E0"/>
<path d="M197.606 92.5315C197.54 92.7216 197.46 92.9433 197.354 93.1996C197.258 93.4184 197.128 93.6206 196.97 93.7987C196.778 94.0245 196.556 94.2231 196.31 94.3891C196.264 94.4165 196.225 94.4566 196.2 94.5049C196.175 94.5532 196.164 94.6076 196.169 94.6619C196.173 94.7162 196.193 94.7681 196.226 94.8115C196.258 94.855 196.303 94.8883 196.353 94.9075C196.597 94.942 197.268 94.6051 197.787 93.9052C198.306 93.2054 198.36 94.5907 198.389 95.0947C198.417 95.5987 198.564 97.1539 198.724 97.2691C198.959 97.439 199.183 97.2172 199.146 96.7132C199.108 96.2092 199.105 94.6972 199.369 94.6972C199.633 94.6972 199.725 97.2633 199.725 97.2633C199.725 97.2633 199.656 97.8163 199.963 97.8393C200.516 97.8566 200.218 95.1321 200.183 94.8758C200.16 94.6943 200.447 94.6828 200.47 94.8758C200.493 95.0687 200.502 97.439 201.066 97.4678C201.496 97.4879 200.84 95.2271 201.109 94.7347C201.379 94.2422 201.433 96.5001 201.846 96.5001C202.001 96.5001 202.115 96.4771 201.898 95.1868C201.792 94.559 201.45 91.6473 201.45 91.6473L202.227 89.4211L198.893 88.0156L197.606 92.5315Z" fill="#263238"/>
<path d="M199.364 65.8594C199.364 65.8594 201.597 67.4261 202.027 69.6667C202.337 71.268 203.039 81.5583 203.039 81.5583C203.039 81.5583 203.647 84.5823 203.707 85.5586C203.767 86.5349 202.741 88.7266 202.741 88.7266L202.271 91.0306L200.207 91.1573L198.234 85.7659L199.364 65.8594Z" fill="#455A64"/>
<path d="M204.908 128.529L206.307 133.736L201.751 134.154L200.797 129.197L204.908 128.529Z" fill="#6D30A7"/>
<path d="M201.62 133.731C201.843 133.747 202.067 133.739 202.288 133.708C202.698 133.676 203.263 133.613 203.888 133.532L205.479 133.316C205.7 133.297 205.92 133.259 206.135 133.204C205.912 133.187 205.688 133.195 205.467 133.227C205.057 133.261 204.493 133.325 203.87 133.405L202.279 133.618C202.057 133.636 201.836 133.674 201.62 133.731Z" fill="#263238"/>
<g opacity="0.6">
<path d="M206.306 133.736L201.751 134.153L201.68 133.773L206.177 133.197L206.304 133.684" fill="white"/>
</g>
<path d="M204.045 133.505C203.935 132.832 203.791 132.166 203.612 131.509C203.468 130.843 203.289 130.186 203.076 129.539C203.184 130.212 203.329 130.878 203.509 131.535C203.653 132.201 203.832 132.858 204.045 133.505Z" fill="#263238"/>
<path d="M201.872 133.695C201.801 133.376 201.801 133.046 201.872 132.727C201.953 132.386 202.124 132.073 202.368 131.823C202.678 131.52 203.083 131.334 203.514 131.298C203.941 131.256 204.37 131.357 204.733 131.586C205.029 131.775 205.274 132.035 205.444 132.344C205.594 132.633 205.692 132.947 205.73 133.271C205.73 133.271 205.73 133.248 205.73 133.202C205.73 133.156 205.73 133.09 205.73 133.003C205.69 132.7 205.586 132.409 205.423 132.15C205.261 131.891 205.045 131.67 204.79 131.503C204.408 131.26 203.956 131.153 203.506 131.2C203.097 131.233 202.71 131.398 202.404 131.672C202.098 131.947 201.89 132.314 201.812 132.718C201.762 132.96 201.762 133.208 201.812 133.45C201.825 133.515 201.845 133.578 201.869 133.64C201.857 133.674 201.869 133.697 201.872 133.695Z" fill="#263238"/>
<path d="M186.1 127.131L186.404 131.757C186.404 131.757 181.817 133.286 181.794 134.147L190.749 134.21L190.569 126.984L186.1 127.131Z" fill="#6D30A7"/>
<g opacity="0.6">
<path d="M189.159 131.284C189.246 131.308 189.321 131.363 189.37 131.439C189.419 131.515 189.439 131.607 189.425 131.696C189.404 131.784 189.35 131.86 189.275 131.91C189.2 131.96 189.11 131.979 189.021 131.964C188.927 131.94 188.846 131.882 188.793 131.801C188.74 131.72 188.719 131.622 188.734 131.526C188.764 131.436 188.828 131.362 188.913 131.319C188.997 131.276 189.094 131.268 189.184 131.296" fill="white"/>
</g>
<g opacity="0.6">
<path d="M190.749 134.207L190.729 133.479L182.083 133.72C181.991 133.767 181.912 133.835 181.853 133.92C181.795 134.006 181.759 134.104 181.748 134.207H190.749Z" fill="white"/>
</g>
<path d="M186.257 131.717C186.257 131.76 186.481 131.774 186.699 131.91C186.917 132.045 187.037 132.224 187.077 132.198C187.117 132.172 187.046 131.927 186.776 131.769C186.507 131.61 186.246 131.676 186.257 131.717Z" fill="#263238"/>
<path d="M185.331 132.135C185.331 132.178 185.515 132.247 185.666 132.423C185.818 132.598 185.87 132.8 185.913 132.797C185.956 132.794 185.976 132.544 185.781 132.322C185.586 132.1 185.331 132.094 185.331 132.135Z" fill="#263238"/>
<path d="M184.832 133.282C184.872 133.282 184.927 133.068 184.806 132.832C184.686 132.596 184.48 132.504 184.462 132.544C184.445 132.585 184.574 132.706 184.669 132.901C184.764 133.097 184.789 133.279 184.832 133.282Z" fill="#263238"/>
<path d="M186.303 130.655C186.323 130.695 186.524 130.629 186.77 130.637C187.017 130.646 187.212 130.721 187.235 130.681C187.258 130.64 187.066 130.493 186.773 130.485C186.481 130.476 186.283 130.623 186.303 130.655Z" fill="#263238"/>
<g opacity="0.3">
<path d="M186.16 128.047L186.215 128.874L190.609 128.698L190.595 127.955L186.16 128.047Z" fill="black"/>
</g>
<path d="M186.26 129.721C186.408 129.756 186.563 129.75 186.708 129.703C186.869 129.671 187.025 129.618 187.172 129.545C187.26 129.502 187.345 129.454 187.427 129.401C187.476 129.371 187.52 129.334 187.559 129.291C187.585 129.258 187.599 129.216 187.599 129.173C187.599 129.131 187.585 129.089 187.559 129.055C187.536 129.025 187.507 129.001 187.473 128.985C187.439 128.969 187.402 128.961 187.364 128.963C187.308 128.963 187.252 128.972 187.198 128.989C187.099 129.015 187.003 129.051 186.911 129.096C186.762 129.169 186.625 129.266 186.507 129.384C186.303 129.582 186.238 129.749 186.252 129.755C186.266 129.761 186.369 129.628 186.576 129.467C186.696 129.37 186.828 129.29 186.969 129.228C187.051 129.193 187.137 129.164 187.224 129.142C187.318 129.113 187.399 129.11 187.424 129.142C187.45 129.173 187.424 129.165 187.424 129.193C187.395 129.224 187.363 129.251 187.327 129.274C187.252 129.326 187.175 129.374 187.095 129.418C186.958 129.49 186.815 129.55 186.668 129.597C186.529 129.629 186.393 129.67 186.26 129.721Z" fill="#263238"/>
<path d="M186.317 129.782C186.334 129.782 186.417 129.63 186.423 129.344C186.425 129.177 186.4 129.011 186.349 128.852C186.316 128.759 186.275 128.669 186.225 128.584C186.2 128.526 186.161 128.475 186.111 128.437C186.06 128.399 186.001 128.374 185.939 128.365C185.899 128.367 185.861 128.38 185.828 128.403C185.796 128.426 185.77 128.458 185.755 128.495C185.734 128.548 185.72 128.604 185.715 128.662C185.699 128.763 185.699 128.866 185.715 128.967C185.743 129.135 185.813 129.292 185.919 129.425C186.102 129.653 186.286 129.699 186.288 129.684C186.291 129.67 186.148 129.581 186.002 129.362C185.921 129.235 185.868 129.093 185.847 128.944C185.835 128.857 185.835 128.769 185.847 128.682C185.847 128.587 185.893 128.509 185.927 128.518C185.962 128.527 186.05 128.584 186.088 128.659C186.135 128.736 186.175 128.817 186.208 128.901C186.261 129.045 186.295 129.195 186.308 129.347C186.334 129.601 186.294 129.776 186.317 129.782Z" fill="#263238"/>
<path d="M186.099 86.9494L199.739 86.8457L206.332 130.342L200.671 131.065L193.415 95.2985L191.242 131.192L191.237 131.299L185.116 131.192L186.099 86.9494Z" fill="#263238"/>
<path d="M192.303 90.4749H191.996H191.162L188.249 90.4519L188.315 90.3885C188.315 91.2525 188.315 92.2087 188.315 93.2282L188.295 93.1763L188.808 93.6515L190.319 95.0483H190.227L192.26 93.2627L192.243 93.3031C192.243 92.4563 192.266 91.7565 192.271 91.2496C192.271 91.0163 192.271 90.8263 192.271 90.6736C192.267 90.6046 192.267 90.5353 192.271 90.4663C192.279 90.5284 192.279 90.5913 192.271 90.6535C192.271 90.7975 192.271 90.9847 192.271 91.2122C192.271 91.7306 192.288 92.4391 192.3 93.3002V93.3232L192.28 93.3405L190.273 95.1491L190.227 95.1923L190.181 95.1491L188.668 93.7552L188.155 93.28L188.132 93.2599V93.2282C188.132 92.2087 188.132 91.2467 188.132 90.3885V90.3223H188.195L191.208 90.4317L192.028 90.4663C192.119 90.4619 192.211 90.4648 192.303 90.4749Z" fill="#455A64"/>
<path d="M198.725 90.2857C198.63 90.3063 198.534 90.3207 198.438 90.3289L197.693 90.421L195.084 90.709L195.138 90.6399C195.242 91.478 195.362 92.437 195.491 93.4566L195.465 93.4105L196.082 93.8886C196.583 94.2889 197.068 94.6806 197.515 95.0406H197.417L199.023 93.0418V93.085C198.931 92.2441 198.859 91.5529 198.805 91.046C198.782 90.8127 198.762 90.6226 198.748 90.47C198.743 90.4 198.743 90.3298 198.748 90.2598C198.763 90.3203 198.775 90.3819 198.782 90.4441C198.802 90.591 198.831 90.7753 198.865 91.0028C198.934 91.5155 199.029 92.2182 199.152 93.0678V93.0908V93.111L197.567 95.127L197.524 95.1817L197.469 95.1385L196.019 93.9865L195.445 93.517L195.422 93.4969V93.4681C195.299 92.4486 195.187 91.4895 195.087 90.6486V90.5852H195.15L197.807 90.3462L198.538 90.2886C198.6 90.2841 198.663 90.2832 198.725 90.2857Z" fill="#455A64"/>
<path d="M190.377 96.8895C190.553 96.7398 190.745 96.6103 190.95 96.5036C191.314 96.2847 191.827 95.9967 192.409 95.7058C192.991 95.415 193.527 95.1759 193.92 95.0146C194.128 94.9141 194.346 94.8377 194.571 94.7871C194.378 94.9125 194.173 95.0195 193.96 95.1068C193.579 95.2911 193.052 95.5446 192.472 95.8354C191.893 96.1263 191.375 96.397 190.999 96.5929C190.802 96.7119 190.593 96.8112 190.377 96.8895Z" fill="#455A64"/>
<path d="M190.555 97.9435C191.037 97.6667 191.487 97.3384 191.899 96.9643C192.275 96.5551 192.608 96.1082 192.894 95.6309C192.71 96.1716 192.403 96.6616 191.996 97.0616C191.59 97.4617 191.096 97.7607 190.555 97.9349V97.9435Z" fill="#455A64"/>
<path d="M186.701 110.512C186.727 110.512 186.827 110.826 187.128 111.263C187.514 111.838 188.057 112.287 188.692 112.557C189.328 112.827 190.027 112.904 190.706 112.781C191.228 112.692 191.529 112.539 191.537 112.562C191.546 112.585 191.471 112.617 191.334 112.68C191.139 112.769 190.935 112.835 190.726 112.879C190.027 113.037 189.296 112.971 188.635 112.691C187.975 112.412 187.418 111.931 187.042 111.318C186.925 111.138 186.829 110.944 186.756 110.742C186.724 110.669 186.705 110.591 186.701 110.512Z" fill="#455A64"/>
<path d="M187.599 110.143C187.784 110.174 187.968 110.221 188.146 110.281C188.584 110.388 189.032 110.45 189.482 110.465C190.54 110.503 191.394 110.341 191.403 110.387C191.226 110.459 191.039 110.505 190.849 110.523C190.396 110.596 189.936 110.624 189.476 110.606C189.015 110.593 188.558 110.516 188.117 110.379C187.932 110.332 187.756 110.252 187.599 110.143Z" fill="#455A64"/>
<path d="M197.741 110.402C198.327 110.821 198.958 111.172 199.622 111.448C200.303 111.678 201.01 111.826 201.726 111.891C201.515 111.933 201.299 111.94 201.087 111.911C200.048 111.837 199.053 111.464 198.22 110.837C198.038 110.719 197.877 110.572 197.741 110.402Z" fill="#455A64"/>
<path d="M198.948 110.348C198.948 110.305 199.522 110.374 200.19 110.319C200.857 110.264 201.405 110.109 201.419 110.152C201.04 110.343 200.625 110.448 200.201 110.46C199.78 110.516 199.352 110.478 198.948 110.348Z" fill="#455A64"/>
<path d="M193.501 95.5996C194.941 96.1015 196.457 96.3461 197.982 96.3225C197.762 96.3787 197.537 96.4049 197.311 96.4002C196.768 96.4195 196.225 96.3858 195.688 96.2994C195.151 96.2137 194.624 96.0748 194.114 95.8847C193.898 95.8192 193.691 95.7232 193.501 95.5996Z" fill="#455A64"/>
<path d="M193.868 94.129C193.909 94.129 193.94 94.2499 193.937 94.417C193.934 94.584 193.903 94.6906 193.863 94.6906C193.823 94.6906 193.794 94.5667 193.794 94.4026C193.794 94.2384 193.831 94.1261 193.868 94.129Z" fill="#455A64"/>
<path d="M193.866 93.0234C193.903 93.0234 193.937 93.1473 193.937 93.3114C193.937 93.4756 193.909 93.5994 193.871 93.5994C193.834 93.5994 193.797 93.4756 193.797 93.3258C193.797 93.1761 193.826 93.0234 193.866 93.0234Z" fill="#455A64"/>
<path d="M193.836 91.9316C193.877 91.9316 193.911 92.0526 193.917 92.2196C193.922 92.3867 193.894 92.4932 193.854 92.5076C193.814 92.522 193.779 92.3867 193.773 92.234C193.768 92.0814 193.788 91.9345 193.836 91.9316Z" fill="#455A64"/>
<path d="M193.788 90.8359C193.825 90.8359 193.865 90.9569 193.871 91.1067C193.877 91.2564 193.854 91.3947 193.816 91.3947C193.779 91.3947 193.739 91.2737 193.73 91.1239C193.722 90.9742 193.745 90.8388 193.788 90.8359Z" fill="#455A64"/>
<path d="M193.708 89.7402C193.748 89.7402 193.788 89.8583 193.8 90.0081C193.811 90.1578 193.8 90.2961 193.748 90.2961C193.696 90.2961 193.668 90.178 193.656 90.0282C193.645 89.8785 193.668 89.7431 193.708 89.7402Z" fill="#455A64"/>
<path d="M193.607 88.6484C193.644 88.6484 193.69 88.7636 193.705 88.9134C193.719 89.0632 193.705 89.2014 193.659 89.2014C193.613 89.2014 193.576 89.0862 193.561 88.9364C193.547 88.7867 193.567 88.6513 193.607 88.6484Z" fill="#455A64"/>
<path d="M201.302 130.047C201.339 130.047 201.393 130.153 201.425 130.3C201.457 130.447 201.445 130.588 201.408 130.588C201.371 130.588 201.313 130.482 201.285 130.335C201.256 130.188 201.262 130.053 201.302 130.047Z" fill="#455A64"/>
<path d="M201.087 128.969C201.124 128.969 201.179 129.075 201.21 129.222C201.242 129.369 201.233 129.51 201.193 129.51C201.153 129.51 201.098 129.404 201.07 129.254C201.041 129.104 201.047 128.975 201.087 128.969Z" fill="#455A64"/>
<path d="M200.871 127.893C200.909 127.893 200.966 127.999 200.995 128.149C201.023 128.299 201.018 128.437 200.978 128.437C200.937 128.437 200.886 128.33 200.854 128.181C200.823 128.031 200.834 127.901 200.871 127.893Z" fill="#455A64"/>
<path d="M200.668 126.814C200.708 126.814 200.763 126.921 200.791 127.071C200.82 127.221 200.814 127.344 200.791 127.359C200.769 127.373 200.697 127.252 200.668 127.102C200.64 126.953 200.619 126.823 200.668 126.814Z" fill="#455A64"/>
<path d="M200.442 125.738C200.482 125.738 200.536 125.845 200.565 125.995C200.594 126.144 200.588 126.283 200.565 126.283C200.542 126.283 200.47 126.176 200.442 126.029C200.413 125.882 200.405 125.747 200.442 125.738Z" fill="#455A64"/>
<path d="M200.229 124.664C200.267 124.664 200.321 124.771 200.353 124.918C200.384 125.064 200.373 125.206 200.336 125.206C200.298 125.206 200.241 125.102 200.212 124.952C200.184 124.802 200.189 124.67 200.229 124.664Z" fill="#455A64"/>
<path d="M200.014 123.586C200.051 123.586 200.108 123.692 200.137 123.839C200.166 123.986 200.16 124.127 200.12 124.127C200.08 124.127 200.028 124.021 199.997 123.871C199.965 123.721 199.974 123.595 200.014 123.586Z" fill="#455A64"/>
<path d="M199.808 122.51C199.848 122.51 199.902 122.616 199.931 122.766C199.96 122.916 199.954 123.054 199.931 123.054C199.908 123.054 199.837 122.948 199.805 122.798C199.773 122.648 199.762 122.518 199.808 122.51Z" fill="#455A64"/>
<path d="M199.584 121.432C199.625 121.432 199.679 121.538 199.708 121.688C199.736 121.838 199.731 121.976 199.708 121.976C199.685 121.976 199.613 121.869 199.584 121.723C199.556 121.576 199.547 121.44 199.584 121.432Z" fill="#455A64"/>
<path d="M199.372 120.355C199.409 120.355 199.464 120.462 199.495 120.612C199.527 120.762 199.515 120.9 199.478 120.9C199.441 120.9 199.383 120.793 199.355 120.646C199.326 120.499 199.332 120.364 199.372 120.355Z" fill="#455A64"/>
<path d="M199.157 119.281C199.194 119.281 199.249 119.388 199.28 119.535C199.312 119.682 199.303 119.823 199.263 119.823C199.223 119.823 199.169 119.716 199.14 119.566C199.111 119.417 199.117 119.287 199.157 119.281Z" fill="#455A64"/>
<path d="M198.948 118.203C198.986 118.203 199.043 118.31 199.072 118.457C199.1 118.603 199.095 118.745 199.054 118.745C199.014 118.745 198.963 118.638 198.931 118.488C198.9 118.338 198.905 118.212 198.948 118.203Z" fill="#455A64"/>
<path d="M198.727 117.127C198.767 117.127 198.822 117.234 198.85 117.383C198.879 117.533 198.873 117.657 198.85 117.671C198.827 117.686 198.756 117.565 198.727 117.415C198.698 117.265 198.69 117.136 198.727 117.127Z" fill="#455A64"/>
<path d="M198.512 116.064C198.552 116.064 198.607 116.171 198.635 116.321C198.664 116.471 198.658 116.609 198.635 116.609C198.612 116.609 198.541 116.502 198.512 116.355C198.483 116.208 198.475 116.064 198.512 116.064Z" fill="#455A64"/>
<path d="M198.3 114.975C198.337 114.975 198.391 115.078 198.423 115.228C198.455 115.378 198.446 115.516 198.406 115.516C198.366 115.516 198.311 115.409 198.283 115.263C198.254 115.116 198.26 114.98 198.3 114.975Z" fill="#455A64"/>
<path d="M198.088 113.898C198.125 113.898 198.183 114.005 198.211 114.152C198.24 114.299 198.234 114.44 198.194 114.44C198.154 114.44 198.102 114.333 198.071 114.184C198.039 114.034 198.045 113.904 198.088 113.898Z" fill="#455A64"/>
<path d="M197.871 112.82C197.911 112.82 197.965 112.927 197.994 113.077C198.022 113.226 198.017 113.35 197.994 113.365C197.971 113.379 197.899 113.258 197.871 113.108C197.842 112.959 197.833 112.829 197.871 112.82Z" fill="#455A64"/>
<path d="M197.655 111.744C197.695 111.744 197.749 111.851 197.778 112C197.807 112.15 197.801 112.274 197.778 112.288C197.755 112.303 197.683 112.182 197.655 112.032C197.626 111.882 197.617 111.744 197.655 111.744Z" fill="#455A64"/>
<path d="M197.443 110.666C197.481 110.666 197.535 110.773 197.567 110.922C197.598 111.072 197.587 111.21 197.549 111.21C197.512 111.21 197.455 111.104 197.426 110.957C197.397 110.81 197.403 110.675 197.443 110.666Z" fill="#455A64"/>
<path d="M197.228 109.592C197.265 109.592 197.322 109.698 197.351 109.845C197.38 109.992 197.374 110.133 197.334 110.133C197.294 110.133 197.242 110.03 197.211 109.88C197.179 109.73 197.188 109.598 197.228 109.592Z" fill="#455A64"/>
<path d="M197.013 108.516C197.05 108.516 197.108 108.622 197.136 108.769C197.165 108.916 197.159 109.057 197.119 109.057C197.079 109.057 197.027 108.951 196.996 108.801C196.964 108.651 196.976 108.521 197.013 108.516Z" fill="#455A64"/>
<path d="M196.798 107.438C196.838 107.438 196.893 107.544 196.922 107.694C196.95 107.844 196.944 107.967 196.922 107.982C196.899 107.996 196.827 107.875 196.798 107.725C196.77 107.576 196.761 107.446 196.798 107.438Z" fill="#455A64"/>
<path d="M196.583 106.361C196.623 106.361 196.678 106.468 196.709 106.618C196.741 106.767 196.729 106.891 196.692 106.906C196.655 106.92 196.598 106.799 196.569 106.652C196.54 106.505 196.546 106.37 196.583 106.361Z" fill="#455A64"/>
<path d="M196.368 105.283C196.406 105.283 196.46 105.39 196.492 105.54C196.523 105.689 196.514 105.828 196.474 105.828C196.434 105.828 196.38 105.721 196.351 105.574C196.322 105.427 196.331 105.292 196.368 105.283Z" fill="#455A64"/>
<path d="M196.156 104.209C196.193 104.209 196.25 104.316 196.279 104.462C196.308 104.609 196.302 104.75 196.262 104.75C196.222 104.75 196.17 104.644 196.138 104.494C196.107 104.344 196.118 104.215 196.156 104.209Z" fill="#455A64"/>
<path d="M195.941 103.133C195.981 103.133 196.035 103.239 196.064 103.386C196.093 103.533 196.087 103.674 196.05 103.674C196.012 103.674 195.955 103.568 195.926 103.418C195.898 103.268 195.903 103.141 195.941 103.133Z" fill="#455A64"/>
<path d="M195.726 102.057C195.766 102.057 195.82 102.163 195.849 102.313C195.878 102.463 195.872 102.587 195.835 102.601C195.797 102.615 195.74 102.494 195.711 102.345C195.683 102.195 195.689 102.065 195.726 102.057Z" fill="#455A64"/>
<path d="M195.508 100.979C195.545 100.979 195.6 101.085 195.631 101.235C195.663 101.385 195.651 101.523 195.614 101.523C195.577 101.523 195.52 101.416 195.491 101.269C195.462 101.123 195.474 100.987 195.508 100.979Z" fill="#455A64"/>
<path d="M195.299 99.9043C195.336 99.9043 195.394 100.008 195.422 100.158C195.451 100.307 195.445 100.446 195.405 100.446C195.365 100.446 195.313 100.339 195.282 100.192C195.25 100.045 195.259 99.9101 195.299 99.9043Z" fill="#455A64"/>
<path d="M195.083 98.8281C195.123 98.8281 195.178 98.9347 195.207 99.0816C195.235 99.2284 195.23 99.3696 195.189 99.3696C195.149 99.3696 195.098 99.263 195.066 99.1133C195.035 98.9635 195.046 98.8339 195.083 98.8281Z" fill="#455A64"/>
<path d="M194.868 97.75C194.909 97.75 194.963 97.8566 194.992 98.0063C195.02 98.1561 195.015 98.2799 194.977 98.2943C194.94 98.3087 194.883 98.1878 194.854 98.038C194.825 97.8882 194.831 97.7586 194.868 97.75Z" fill="#455A64"/>
<path d="M194.648 96.6738C194.685 96.6738 194.74 96.7804 194.771 96.9301C194.803 97.0799 194.791 97.2037 194.754 97.2181C194.717 97.2325 194.659 97.1116 194.631 96.9618C194.602 96.8121 194.616 96.6825 194.648 96.6738Z" fill="#455A64"/>
<path d="M194.47 95.7363C194.507 95.7363 194.556 95.8112 194.579 95.9206C194.602 96.0301 194.579 96.128 194.548 96.1338C194.516 96.1395 194.462 96.0589 194.439 95.9494C194.416 95.84 194.43 95.745 194.47 95.7363Z" fill="#455A64"/>
<path d="M194.362 53.1484L194.396 64.6885L189.468 64.9247L189.328 62.1167C189.328 62.1167 187.576 62.468 187.123 60.8351C186.837 59.7896 186.908 51.7285 186.908 51.7285L194.362 53.1484Z" fill="#FFBE9D"/>
<path d="M186.254 52.5404C187.028 52.7622 187.197 54.038 187.197 54.038L188.416 56.7395C189.035 56.2528 189.869 56.2787 190.027 57.376C190.141 58.1651 189.167 58.3264 189.167 58.3264C189.74 59.2998 190.124 60.0889 190.953 61.0163C191.853 62.0185 192.354 62.1222 193.329 62.1366H194.404C194.404 62.1366 194.929 60.423 195.903 56.1318C196.984 51.374 191.383 51.9875 190.345 50.7721C188.648 48.7964 183.806 51.8406 186.254 52.5404Z" fill="#263238"/>
<path d="M195.795 56.5805C196.703 55.9699 196.787 54.2534 196.256 53.2253C195.984 52.7131 195.581 52.2821 195.09 51.9757C194.599 51.6693 194.036 51.4984 193.458 51.48C193.305 51.4889 193.15 51.4714 193.003 51.4282C192.801 51.3192 192.631 51.1582 192.512 50.9616C191.701 49.9018 190.904 48.8592 189.391 48.8592C189.058 48.8441 188.729 48.9261 188.442 49.0954C188.173 49.2792 187.972 49.5462 187.868 49.8557C187.591 49.7061 187.294 49.5983 186.985 49.536C186.83 49.5061 186.671 49.5102 186.517 49.548C186.364 49.5858 186.22 49.6563 186.097 49.7549C185.974 49.8582 185.893 50.0024 185.868 50.1611C185.842 50.3198 185.875 50.4823 185.959 50.6189C185.703 50.6158 185.454 50.7046 185.257 50.8692C185.06 51.0339 184.928 51.2637 184.884 51.5174C184.804 52.0243 185.529 52.3814 185.604 52.4189C185.604 52.4189 185.205 53.2541 186.151 53.7552C186.303 53.81 186.465 53.8319 186.626 53.8195C186.787 53.8071 186.944 53.7606 187.086 53.6832" fill="#263238"/>
<path d="M192.197 57.6914C192.264 57.9707 192.317 58.2533 192.355 58.5381C192.458 58.996 192.61 59.3503 192.575 59.3704C192.382 59.1428 192.257 58.8638 192.217 58.5669C192.129 58.2827 192.122 57.9794 192.197 57.6914Z" fill="#455A64"/>
<path d="M191.601 57.125C191.691 57.3898 191.751 57.6643 191.779 57.9429C191.852 58.2138 191.895 58.492 191.908 58.7724C191.759 58.5281 191.667 58.2535 191.638 57.9688C191.564 57.6937 191.551 57.4056 191.601 57.125Z" fill="#455A64"/>
<path d="M189.895 55.2205C189.895 55.2061 190.064 55.2809 190.267 55.4825C190.521 55.7508 190.717 56.0697 190.841 56.4185C190.968 56.7638 191.056 57.1222 191.104 57.487C191.137 57.6363 191.147 57.7898 191.133 57.9421C191.068 57.8046 191.025 57.6579 191.004 57.5072C190.93 57.156 190.834 56.8097 190.717 56.4704C190.593 56.1373 190.414 55.8269 190.19 55.5517C190.018 55.3414 189.88 55.2378 189.895 55.2205Z" fill="#455A64"/>
<path d="M189.201 53.9219C189.188 54.2798 189.214 54.6381 189.278 54.9904C189.387 55.3313 189.532 55.6596 189.711 55.9696C189.431 55.7196 189.232 55.3904 189.141 55.025C189.05 54.6596 189.071 54.2751 189.201 53.9219Z" fill="#455A64"/>
<path d="M195.086 56.805C195.066 56.7704 195.189 56.6667 195.373 56.5717C195.556 56.4767 195.694 56.4277 195.714 56.4623C195.734 56.4968 195.611 56.6005 195.442 56.6955C195.272 56.7906 195.106 56.8395 195.086 56.805Z" fill="#455A64"/>
<path d="M192.705 55.584C192.745 55.584 192.819 55.7885 192.96 56.0189C193.1 56.2493 193.246 56.4134 193.224 56.4451C193.201 56.4768 192.991 56.3472 192.839 56.0909C192.687 55.8345 192.667 55.584 192.705 55.584Z" fill="#455A64"/>
<path d="M191.974 55.1777C192.014 55.1777 192.117 55.4254 192.303 55.7048C192.49 55.9841 192.685 56.1829 192.659 56.2145C192.633 56.2462 192.372 56.0849 192.186 55.7825C192.045 55.6132 191.97 55.3984 191.974 55.1777Z" fill="#455A64"/>
<path d="M188.341 50.346C188.341 50.346 188.358 50.3201 188.398 50.2798C188.455 50.224 188.518 50.1739 188.584 50.13C188.843 49.9666 189.139 49.8752 189.444 49.8651C189.893 49.8391 190.339 49.9484 190.726 50.179C191.187 50.4743 191.561 50.8879 191.809 51.3771C191.994 51.7299 192.137 52.1029 192.237 52.4888L192.136 52.4484C192.457 52.2854 192.808 52.1914 193.167 52.1726C193.526 52.1537 193.885 52.2104 194.22 52.339C194.412 52.4097 194.594 52.5066 194.759 52.627C194.821 52.6665 194.877 52.7162 194.923 52.7739C194.691 52.6314 194.446 52.5108 194.192 52.4139C193.867 52.3039 193.524 52.2606 193.182 52.2863C192.84 52.312 192.507 52.4063 192.202 52.5636L192.125 52.6011L192.105 52.5204C192.005 52.1463 191.864 51.7842 191.686 51.4404C191.449 50.9731 191.094 50.576 190.657 50.2884C190.295 50.0635 189.876 49.9494 189.45 49.9601C189.162 49.9637 188.879 50.0358 188.625 50.1703C188.427 50.2769 188.341 50.3575 188.341 50.346Z" fill="#455A64"/>
<path d="M185.741 50.9758C185.645 51.0009 185.56 51.0577 185.5 51.1371C185.433 51.2289 185.404 51.3438 185.42 51.4568C185.434 51.5291 185.465 51.5972 185.509 51.6557C185.554 51.7141 185.612 51.7614 185.678 51.7937C185.84 51.8803 186.029 51.9009 186.205 51.8513C186.414 51.7948 186.609 51.6969 186.779 51.5633C186.974 51.4074 187.179 51.2641 187.392 51.1342C187.631 50.9972 187.89 50.9 188.16 50.8462C188.678 50.7528 189.21 50.7924 189.708 50.9614C190.11 51.1004 190.486 51.3037 190.823 51.5633C191.049 51.7362 191.259 51.929 191.451 52.1393C191.528 52.2113 191.592 52.2949 191.643 52.387C191.363 52.1246 191.069 51.8767 190.763 51.644C190.428 51.4041 190.059 51.2167 189.668 51.0881C189.19 50.9322 188.681 50.8966 188.186 50.9845C187.933 51.033 187.688 51.1194 187.461 51.2408C187.252 51.3677 187.05 51.5061 186.856 51.6555C186.672 51.7982 186.46 51.9012 186.234 51.9579C186.03 52.0098 185.814 51.9798 185.632 51.8744C185.556 51.8314 185.49 51.7714 185.44 51.699C185.391 51.6266 185.358 51.5437 185.345 51.4568C185.335 51.325 185.377 51.1946 185.463 51.0939C185.603 50.9326 185.761 50.9758 185.741 50.9758Z" fill="#455A64"/>
<path d="M201.507 98.1524C201.467 98.1524 201.143 96.6462 200.785 94.7713C200.427 92.8964 200.169 91.37 200.212 91.3614C200.255 91.3527 200.576 92.8676 200.934 94.7425C201.292 96.6174 201.548 98.1438 201.507 98.1524Z" fill="#455A64"/>
<path d="M165.121 71.8326C165.121 71.8326 163.771 71.1471 163.181 70.7698C162.98 70.6402 162.286 70.0153 161.925 69.687C161.904 69.6685 161.878 69.6565 161.85 69.6522C161.823 69.6478 161.794 69.6515 161.768 69.6626C161.743 69.6737 161.721 69.6919 161.705 69.715C161.689 69.7382 161.68 69.7654 161.678 69.7935C161.663 70.0473 161.717 70.3005 161.836 70.525C162.077 70.9023 162.209 71.1673 162.209 71.1673C162.209 71.1673 159.675 70.0556 159.342 70.1938C159.01 70.3321 159.101 70.6143 159.342 70.7468C159.583 70.8793 160.93 71.5676 160.93 71.5676C160.93 71.5676 158.955 71.1961 158.797 71.1874C158.319 71.1529 158.511 71.7001 158.749 71.7433C158.987 71.7865 160.798 72.4316 160.798 72.4316C160.798 72.4316 158.554 72.2588 158.465 72.4662C158.327 72.7858 158.614 72.9183 158.792 72.9385C158.969 72.9586 160.773 73.287 160.773 73.287C160.773 73.287 161.128 73.4569 160.887 73.5001C160.646 73.5433 159.454 73.405 159.193 73.526C159.104 73.5692 158.906 73.8802 159.48 73.9378C159.795 73.9695 162.656 74.6233 164.708 74.5801L165.121 71.8326Z" fill="#263238"/>
<path d="M164.963 71.5365L164.708 75.0213L165.711 75.3093C165.711 75.3093 166.018 76.0754 167.182 76.421C168.346 76.7666 175.957 77.8985 182.622 74.8543C187.1 72.8095 187.874 71.6114 187.874 71.6114C187.874 71.6114 188.533 66.0386 185.678 65.2207L182.238 66.0559L179.982 68.2821L178.391 67.7349L169.183 70.877L166.285 71.6575L164.963 71.5365Z" fill="#455A64"/>
<path d="M182.246 66.0469C182.083 66.2812 181.898 66.4992 181.693 66.6978C181.226 67.2032 180.733 67.6839 180.217 68.1378C179.7 68.5946 179.148 69.0096 178.566 69.379C178.332 69.5439 178.08 69.6803 177.814 69.7851C178.036 69.6062 178.267 69.4408 178.508 69.2898C179.067 68.8977 179.605 68.4756 180.119 68.0254C180.721 67.4984 181.24 66.9915 181.619 66.6229C181.811 66.4135 182.021 66.2208 182.246 66.0469Z" fill="#263238"/>
<path d="M177.852 74.9672C177.766 74.998 177.676 75.0155 177.585 75.019C177.41 75.0421 177.158 75.0622 176.843 75.0709C175.201 75.1118 173.573 74.7708 172.084 74.0744C171.86 73.9706 171.64 73.8552 171.428 73.7288C171.345 73.6897 171.269 73.6383 171.201 73.5762C171.201 73.5531 171.554 73.7374 172.127 73.9794C173.62 74.6144 175.222 74.95 176.843 74.9672C177.465 74.973 177.849 74.9442 177.852 74.9672Z" fill="#263238"/>
<path d="M185.188 86.3281C185.188 86.3281 185.036 87.4168 184.855 88.6494C184.709 89.6286 184.666 90.9678 185.715 91.4315C185.715 91.4315 198.329 91.1435 200.152 91.2644C201.585 91.3624 200.611 87.2756 200.611 87.2756L185.188 86.3281Z" fill="#455A64"/>
<path d="M195.84 90.4689C195.666 90.1238 195.56 89.7483 195.528 89.3629C195.445 88.9842 195.437 88.5927 195.505 88.2109C195.585 88.5822 195.642 88.9584 195.674 89.337C195.756 89.7099 195.812 90.0881 195.84 90.4689Z" fill="#263238"/>
<path d="M196.701 89.8273C196.424 89.2794 196.237 88.69 196.147 88.082C196.31 88.3492 196.428 88.6409 196.497 88.946C196.611 89.227 196.68 89.5245 196.701 89.8273Z" fill="#263238"/>
<path d="M200.751 87.8027C200.777 87.8027 200.777 88.0216 200.857 88.3528C201.003 88.7903 201.088 89.2457 201.112 89.7064C201.118 89.9663 201.072 90.2248 200.977 90.4667C200.899 90.6654 200.78 90.845 200.628 90.9938C200.499 91.1441 200.319 91.2406 200.123 91.2645C200.277 91.1654 200.42 91.0505 200.55 90.9218C200.837 90.5841 200.984 90.1495 200.963 89.7064C200.936 89.2571 200.866 88.8115 200.754 88.3759C200.707 88.1879 200.706 87.9912 200.751 87.8027Z" fill="#263238"/>
<path d="M185.125 73.8056C185.125 73.8056 184.19 87.0248 184.838 88.6491C184.838 88.6491 193.579 88.1739 196.701 88.0357C199.765 87.8974 200.811 87.7966 200.811 87.7966L200.189 73.5032L199.47 65.7272L195.743 63.6853L189.021 63.4434C186.911 64.3563 184.858 65.0101 184.102 65.589L185.125 73.8056Z" fill="#6D30A7"/>
<path d="M197.329 79.8848C197.251 80.0195 197.163 80.1476 197.065 80.2678C196.887 80.5126 196.615 80.8438 196.257 81.2528C195.838 81.7225 195.394 82.1686 194.926 82.5891C194.352 83.1055 193.747 83.5864 193.115 84.0291C192.479 84.4641 191.817 84.8603 191.134 85.2156C190.575 85.5026 190 85.7593 189.414 85.9846C188.912 86.1747 188.499 86.31 188.21 86.3878C188.064 86.4384 187.913 86.4751 187.76 86.4972C187.9 86.4321 188.045 86.3773 188.193 86.3331C188.479 86.238 188.881 86.0883 189.374 85.8838C189.867 85.6793 190.446 85.4172 191.071 85.0918C191.746 84.7334 192.401 84.3372 193.032 83.9052C193.657 83.4678 194.259 82.9968 194.835 82.494C195.362 82.0217 195.818 81.5782 196.179 81.1865C196.54 80.7948 196.83 80.4694 197.019 80.239C197.112 80.1125 197.216 79.994 197.329 79.8848Z" fill="#263238"/>
<path d="M184.87 71.7551L199.94 70.75L200.218 74.062L185.036 75.1478L185.125 73.8057L184.87 71.7551Z" fill="#F5F5F5"/>
<g opacity="0.2">
<path d="M189.015 63.4492C190.336 64.7279 192.678 66.1679 194.539 65.7388C194.957 65.6919 195.347 65.5064 195.648 65.2118C195.995 64.8604 195.935 64.1491 195.737 63.6911L189.015 63.4492Z" fill="black"/>
</g>
<g opacity="0.2">
<path d="M196.941 80.5425C197.228 80.2056 196.198 80.0673 195.794 80.1825C195.381 80.3208 195.014 80.571 194.734 80.9054C194.456 81.2383 194.152 81.5484 193.825 81.8328C193.204 82.26 192.48 82.5135 191.729 82.5672C190.981 82.6217 190.239 82.7334 189.508 82.9012C189.142 82.9881 188.798 83.1499 188.498 83.3763C188.198 83.6028 187.947 83.8891 187.762 84.2174C187.438 84.8942 187.613 85.8388 188.272 86.1988C188.263 86.1988 192.658 85.8648 196.941 80.5425Z" fill="black"/>
</g>
<path d="M187.412 64.1058C187.412 64.1058 188.023 60.7045 191.354 60.2869C194.685 59.8693 195.892 61.557 196.032 61.7269C196.173 61.8968 196.892 62.9768 195.573 63.6767L189.015 63.4405L187.412 64.1058Z" fill="#455A64"/>
<path d="M195.267 61.9408C195.157 61.9712 195.043 61.9867 194.929 61.9869C194.619 62.0054 194.308 62.0054 193.997 61.9869C193.605 61.9667 193.137 61.9206 192.627 61.8774C192.073 61.8254 191.516 61.8254 190.962 61.8774C189.954 61.9826 189.008 62.4131 188.264 63.1043C187.965 63.4001 187.689 63.7188 187.438 64.0576C187.48 63.9553 187.534 63.8586 187.599 63.7696C187.767 63.5057 187.966 63.2622 188.19 63.0438C188.935 62.3096 189.906 61.8507 190.944 61.7421C191.508 61.692 192.076 61.6988 192.639 61.7622L194.006 61.9033C194.393 61.9379 194.708 61.9494 194.926 61.9552C195.039 61.9382 195.153 61.9334 195.267 61.9408Z" fill="#263238"/>
<path d="M195.25 63.1304C195.023 63.2201 194.785 63.2773 194.542 63.3003C193.377 63.4779 192.187 63.4033 191.053 63.0815C190.815 63.0272 190.585 62.94 190.371 62.8223C190.61 62.8574 190.847 62.9093 191.079 62.9778C191.645 63.1074 192.22 63.1912 192.799 63.2283C193.372 63.263 193.948 63.2524 194.519 63.1967C194.761 63.1579 195.005 63.1358 195.25 63.1304Z" fill="#263238"/>
<path d="M209.342 134.208C209.342 134.251 163.653 134.283 107.306 134.283C50.9591 134.283 5.25293 134.251 5.25293 134.208C5.25293 134.164 50.9304 134.133 107.306 134.133C163.682 134.133 209.342 134.17 209.342 134.208Z" fill="#263238"/>
</svg>
