<!-- <svg width="139" height="22" viewBox="0 0 139 22" fill="none" xmlns="http://www.w3.org/2000/svg">
<path d="M11.6406 21.1854H6.59061L0 0.814453H4.59345L9.12984 15.1369H9.18691L13.7804 0.814453H18.4023L11.6406 21.1854Z" fill="url(#paint0_linear_5430_10216)"/>
<path d="M29.6715 13.3109H34.9497L32.382 5.83587H32.3249L29.6715 13.3109ZM30.0995 0.814453H34.693L42.3107 21.1854H37.6602L36.1195 16.649H28.5018L26.9041 21.1854H22.3962L30.0995 0.814453Z" fill="url(#paint1_linear_5430_10216)"/>
<path d="M49.7735 0.814453H54.2528V17.4194H64.1815V21.1854H49.7735V0.814453Z" fill="url(#paint2_linear_5430_10216)"/>
<path d="M72.3919 0.814453H87.6273V4.58051H76.8712V8.94572H86.7429V12.4265H76.8712V17.4194H87.8556V21.1854H72.3919V0.814453Z" fill="url(#paint3_linear_5430_10216)"/>
<path d="M101.106 4.58051H95.0007V0.814453H111.691V4.58051H105.586V21.1854H101.106V4.58051Z" fill="url(#paint4_linear_5430_10216)"/>
<path fill-rule="evenodd" clip-rule="evenodd" d="M130.172 5.33543C130.172 2.92809 128.221 0.976562 125.813 0.976562L125.813 8.90233H122.249C119.841 8.90233 117.89 10.8539 117.89 13.2612L125.813 13.2612V16.827C125.813 19.2343 127.765 21.1859 130.172 21.1859V13.2612H133.74C136.147 13.2612 138.099 11.3097 138.099 8.90233L130.172 8.90233V5.33543Z" fill="#ECB602"/>
<defs>
<linearGradient id="paint0_linear_5430_10216" x1="55.8456" y1="21.1854" x2="55.8456" y2="0.814453" gradientUnits="userSpaceOnUse">
<stop stop-color="#6D30A7"/>
<stop offset="0.485" stop-color="#462A90"/>
<stop offset="1" stop-color="#2C117D"/>
</linearGradient>
<linearGradient id="paint1_linear_5430_10216" x1="55.8456" y1="21.1854" x2="55.8456" y2="0.814453" gradientUnits="userSpaceOnUse">
<stop stop-color="#6D30A7"/>
<stop offset="0.485" stop-color="#462A90"/>
<stop offset="1" stop-color="#2C117D"/>
</linearGradient>
<linearGradient id="paint2_linear_5430_10216" x1="55.8456" y1="21.1854" x2="55.8456" y2="0.814453" gradientUnits="userSpaceOnUse">
<stop stop-color="#6D30A7"/>
<stop offset="0.485" stop-color="#462A90"/>
<stop offset="1" stop-color="#2C117D"/>
</linearGradient>
<linearGradient id="paint3_linear_5430_10216" x1="55.8456" y1="21.1854" x2="55.8456" y2="0.814453" gradientUnits="userSpaceOnUse">
<stop stop-color="#6D30A7"/>
<stop offset="0.485" stop-color="#462A90"/>
<stop offset="1" stop-color="#2C117D"/>
</linearGradient>
<linearGradient id="paint4_linear_5430_10216" x1="55.8456" y1="21.1854" x2="55.8456" y2="0.814453" gradientUnits="userSpaceOnUse">
<stop stop-color="#6D30A7"/>
<stop offset="0.485" stop-color="#462A90"/>
<stop offset="1" stop-color="#2C117D"/>
</linearGradient>
</defs>
</svg> -->

<svg width="150" height="50" viewBox="0 0 600 100" fill="none" xmlns="http://www.w3.org/2000/svg">
<path d="M113.403 18.1956C92.1935 -6.06521 57.8061 -6.06521 36.5966 18.1956C15.3871 42.4644 15.3871 81.8044 36.5966 106.065L74.9964 150L113.403 106.065C134.613 81.8044 134.613 42.4644 113.403 18.1956Z" fill="#3D228A"/>
<ellipse cx="75" cy="74.4611" rx="75" ry="27.7917" fill="#ECB602"/>
<ellipse cx="74.7695" cy="71.3135" rx="65" ry="20.3" fill="white"/>
<ellipse cx="74.7124" cy="68.6666" rx="54.023" ry="15.3333" fill="#3D228A"/>
<path fill-rule="evenodd" clip-rule="evenodd" d="M74.9658 46.6694C96.1587 46.6694 115.298 49.9267 128.938 55.1638C129.105 56.8588 129.21 58.5601 129.255 60.2631C117.662 54.6995 97.574 51.0209 74.7353 51.0209C52.2041 51.0209 32.3505 54.6012 20.689 60.0394C20.7367 58.4104 20.8401 56.7831 20.9992 55.1615C34.6387 49.9257 53.776 46.6694 74.9658 46.6694Z" fill="#ECB602"/>
<path d="M46.2278 44.0864V63.4185L47.0214 64.1552V68.9422C47.0214 70.1206 47.8679 70.4151 48.2912 70.4151H59.5603C60.5761 70.4151 60.7243 69.4332 60.6714 68.9422V65.9964H63.2109L67.3376 63.0505H83.5271L87.4951 65.9964H90.1933V68.9422C90.1933 69.9733 91.0398 70.3538 91.4631 70.4151H102.732C103.748 70.4151 103.896 69.4332 103.843 68.9422V64.1552L104.637 63.4188V45.5596C104.637 39.9625 101.568 37.9495 100.034 37.6426C101.092 37.0288 103.494 35.617 104.637 34.8809C106.065 33.9607 106.383 33.2238 106.383 31.935C106.383 30.6462 103.843 30.8303 102.574 30.8303C98.6372 30.9776 98.8171 34.2055 99.3991 35.8011L98.1293 36.7217L94.0026 24.7545C92.627 24.202 86.9554 23.0235 75.2736 22.7289C63.5918 22.4343 58.026 24.2018 56.7034 25.1224L52.5766 36.7217C52.4179 36.5989 51.9735 36.243 51.4656 35.8011C52.2592 31.1982 50.3546 31.3824 47.9738 30.8301C45.593 30.2777 44.7993 31.0142 44.4819 32.1189C44.2279 33.0026 44.9051 33.96 45.2755 34.3283C46.3865 34.942 49.0213 36.464 50.672 37.6423C47.4976 38.2315 46.3865 42.1839 46.2278 44.0864Z" fill="white"/>
<path fill-rule="evenodd" clip-rule="evenodd" d="M89.9697 48.5511C91.7764 47.3535 96.0091 45.168 98.4868 46.0063C100.552 47.3532 99.6482 49.2993 98.874 49.898C98.0997 50.4968 95.9059 51.9938 90.8731 50.7962C90.4601 49.8382 90.0988 48.9003 89.9697 48.5511ZM61.439 48.6997L60.7938 50.7954C59.2452 51.2944 55.5545 51.9032 53.18 50.3464C50.8056 48.7895 51.7605 47.0032 52.5348 46.3046C52.7929 46.0551 53.6962 45.6459 55.2448 46.0052C56.7934 46.3645 60.0195 47.9512 61.439 48.6997ZM64.7996 48.9992C64.5416 49.3485 64.077 50.3165 64.2835 51.3943C65.5739 51.9931 72.4134 54.0888 75.5105 54.0888C77.9882 54.0888 84.3717 52.2925 87.2538 51.3943C87.3398 50.8454 87.357 49.598 86.7376 48.9992C86.3176 48.9992 84.7439 49.0735 82.8771 49.1617C80.1558 49.2903 76.8117 49.4483 75.5105 49.4483C73.7555 49.4483 67.6387 49.1489 64.7996 48.9992Z" fill="#3D228A"/>
<path d="M183.43 34.1818L201.601 89.1364H202.317L220.453 34.1818H234.362L209.749 104H194.135L169.555 34.1818H183.43ZM252.643 105.057C249.325 105.057 246.337 104.466 243.678 103.284C241.041 102.08 238.95 100.307 237.405 97.9659C235.882 95.625 235.121 92.7386 235.121 89.3068C235.121 86.3523 235.666 83.9091 236.757 81.9773C237.848 80.0455 239.337 78.5 241.223 77.3409C243.109 76.1818 245.234 75.3068 247.598 74.7159C249.984 74.1023 252.45 73.6591 254.996 73.3864C258.064 73.0682 260.553 72.7841 262.462 72.5341C264.371 72.2614 265.757 71.8523 266.621 71.3068C267.507 70.7386 267.95 69.8636 267.95 68.6818V68.4773C267.95 65.9091 267.189 63.9205 265.666 62.5114C264.143 61.1023 261.95 60.3977 259.087 60.3977C256.064 60.3977 253.666 61.0568 251.893 62.375C250.143 63.6932 248.962 65.25 248.348 67.0455L236.825 65.4091C237.734 62.2273 239.234 59.5682 241.325 57.4318C243.416 55.2727 245.973 53.6591 248.996 52.5909C252.018 51.5 255.359 50.9545 259.018 50.9545C261.541 50.9545 264.053 51.25 266.553 51.8409C269.053 52.4318 271.337 53.4091 273.405 54.7727C275.473 56.1136 277.132 57.9432 278.382 60.2614C279.655 62.5795 280.291 65.4773 280.291 68.9545V104H268.428V96.8068H268.018C267.268 98.2614 266.212 99.625 264.848 100.898C263.507 102.148 261.814 103.159 259.768 103.932C257.746 104.682 255.371 105.057 252.643 105.057ZM255.848 95.9886C258.325 95.9886 260.473 95.5 262.291 94.5227C264.109 93.5227 265.507 92.2045 266.484 90.5682C267.484 88.9318 267.984 87.1477 267.984 85.2159V79.0455C267.598 79.3636 266.939 79.6591 266.007 79.9318C265.098 80.2045 264.075 80.4432 262.939 80.6477C261.803 80.8523 260.678 81.0341 259.564 81.1932C258.45 81.3523 257.484 81.4886 256.666 81.6023C254.825 81.8523 253.178 82.2614 251.723 82.8295C250.268 83.3977 249.121 84.1932 248.28 85.2159C247.439 86.2159 247.018 87.5114 247.018 89.1023C247.018 91.375 247.848 93.0909 249.507 94.25C251.166 95.4091 253.28 95.9886 255.848 95.9886ZM305.041 34.1818V104H292.7V34.1818H305.041ZM340.913 105.023C335.663 105.023 331.129 103.932 327.311 101.75C323.516 99.5455 320.595 96.4318 318.55 92.4091C316.504 88.3636 315.482 83.6023 315.482 78.125C315.482 72.7386 316.504 68.0114 318.55 63.9432C320.618 59.8523 323.504 56.6705 327.209 54.3977C330.913 52.1023 335.266 50.9545 340.266 50.9545C343.493 50.9545 346.538 51.4773 349.402 52.5227C352.288 53.5455 354.834 55.1364 357.038 57.2955C359.266 59.4545 361.016 62.2045 362.288 65.5455C363.561 68.8636 364.197 72.8182 364.197 77.4091V81.1932H321.277V72.875H352.368C352.345 70.5114 351.834 68.4091 350.834 66.5682C349.834 64.7045 348.436 63.2386 346.641 62.1705C344.868 61.1023 342.8 60.5682 340.436 60.5682C337.913 60.5682 335.697 61.1818 333.788 62.4091C331.879 63.6136 330.391 65.2045 329.322 67.1818C328.277 69.1364 327.743 71.2841 327.72 73.625V80.8864C327.72 83.9318 328.277 86.5455 329.391 88.7273C330.504 90.8864 332.061 92.5455 334.061 93.7045C336.061 94.8409 338.402 95.4091 341.084 95.4091C342.879 95.4091 344.504 95.1591 345.959 94.6591C347.413 94.1364 348.675 93.375 349.743 92.375C350.811 91.375 351.618 90.1364 352.163 88.6591L363.686 89.9545C362.959 93 361.572 95.6591 359.527 97.9318C357.504 100.182 354.913 101.932 351.754 103.182C348.595 104.409 344.982 105.023 340.913 105.023ZM400.786 51.6364V61.1818H370.683V51.6364H400.786ZM378.115 39.0909H390.456V88.25C390.456 89.9091 390.706 91.1818 391.206 92.0682C391.729 92.9318 392.411 93.5227 393.251 93.8409C394.092 94.1591 395.024 94.3182 396.047 94.3182C396.82 94.3182 397.524 94.2614 398.161 94.1477C398.82 94.0341 399.32 93.9318 399.661 93.8409L401.74 103.489C401.081 103.716 400.138 103.966 398.911 104.239C397.706 104.511 396.229 104.67 394.479 104.716C391.388 104.807 388.604 104.341 386.126 103.318C383.649 102.273 381.683 100.659 380.229 98.4773C378.797 96.2955 378.092 93.5682 378.115 90.2955V39.0909ZM412.777 104V34.1818H438.959C444.322 34.1818 448.822 35.1818 452.459 37.1818C456.118 39.1818 458.879 41.9318 460.743 45.4318C462.629 48.9091 463.572 52.8636 463.572 57.2955C463.572 61.7727 462.629 65.75 460.743 69.2273C458.857 72.7045 456.072 75.4432 452.391 77.4432C448.709 79.4205 444.175 80.4091 438.788 80.4091H421.436V70.0114H437.084C440.22 70.0114 442.788 69.4659 444.788 68.375C446.788 67.2841 448.266 65.7841 449.22 63.875C450.197 61.9659 450.686 59.7727 450.686 57.2955C450.686 54.8182 450.197 52.6364 449.22 50.75C448.266 48.8636 446.777 47.3977 444.754 46.3523C442.754 45.2841 440.175 44.75 437.016 44.75H425.425V104H412.777ZM486.354 34.1818V104H474.013V34.1818H486.354ZM532.419 81.9773V51.6364H544.76V104H532.794V94.6932H532.249C531.067 97.625 529.124 100.023 526.419 101.886C523.737 103.75 520.43 104.682 516.499 104.682C513.067 104.682 510.033 103.92 507.396 102.398C504.783 100.852 502.737 98.6136 501.26 95.6818C499.783 92.7273 499.044 89.1591 499.044 84.9773V51.6364H511.385V83.0682C511.385 86.3864 512.294 89.0227 514.112 90.9773C515.93 92.9318 518.317 93.9091 521.271 93.9091C523.089 93.9091 524.851 93.4659 526.555 92.5795C528.26 91.6932 529.658 90.375 530.749 88.625C531.862 86.8523 532.419 84.6364 532.419 81.9773ZM598.837 65.4773L587.587 66.7045C587.268 65.5682 586.712 64.5 585.916 63.5C585.143 62.5 584.098 61.6932 582.78 61.0795C581.462 60.4659 579.848 60.1591 577.939 60.1591C575.371 60.1591 573.212 60.7159 571.462 61.8295C569.734 62.9432 568.882 64.3864 568.905 66.1591C568.882 67.6818 569.439 68.9205 570.575 69.875C571.734 70.8295 573.643 71.6136 576.303 72.2273L585.234 74.1364C590.189 75.2045 593.871 76.8977 596.28 79.2159C598.712 81.5341 599.939 84.5682 599.962 88.3182C599.939 91.6136 598.973 94.5227 597.064 97.0455C595.178 99.5455 592.553 101.5 589.189 102.909C585.825 104.318 581.962 105.023 577.598 105.023C571.189 105.023 566.03 103.682 562.121 101C558.212 98.2955 555.882 94.5341 555.132 89.7159L567.166 88.5568C567.712 90.9205 568.871 92.7045 570.643 93.9091C572.416 95.1136 574.723 95.7159 577.564 95.7159C580.496 95.7159 582.848 95.1136 584.621 93.9091C586.416 92.7045 587.314 91.2159 587.314 89.4432C587.314 87.9432 586.734 86.7045 585.575 85.7273C584.439 84.75 582.666 84 580.257 83.4773L571.325 81.6023C566.303 80.5568 562.587 78.7955 560.178 76.3182C557.768 73.8182 556.575 70.6591 556.598 66.8409C556.575 63.6136 557.45 60.8182 559.223 58.4545C561.018 56.0682 563.507 54.2273 566.689 52.9318C569.893 51.6136 573.587 50.9545 577.768 50.9545C583.905 50.9545 588.734 52.2614 592.257 54.875C595.803 57.4886 597.996 61.0227 598.837 65.4773Z" fill="#3D228A"/>
</svg>
